<svg width="32" height="32" viewBox="0 0 32 32" fill="none" xmlns="http://www.w3.org/2000/svg">
<path d="M15.999 15.5C18.8166 15.5 21.3313 16.7959 22.9805 18.8203C23.0182 18.8667 23.0822 18.8835 23.1377 18.8613C23.7138 18.6297 24.3425 18.5 25 18.5C27.7612 18.5001 29.9998 20.7388 30 23.5C30 23.6347 29.9949 23.769 29.9844 23.9014C29.9529 24.2952 29.692 24.6333 29.3193 24.7646C27.9667 25.241 26.5123 25.5 25 25.5C24.9679 25.5002 24.9409 25.523 24.9355 25.5547C24.886 25.8484 24.7083 26.1056 24.4482 26.2549C21.9585 27.6835 19.0724 28.5 15.999 28.5C12.9257 28.4999 10.0395 27.6834 7.5498 26.2549C7.28911 26.1051 7.11045 25.8465 7.06152 25.5518C7.05652 25.5216 7.03057 25.5 7 25.5C5.48766 25.5 4.0333 25.241 2.68066 24.7646C2.30819 24.6333 2.04709 24.2951 2.01562 23.9014C2.00511 23.769 2 23.6346 2 23.5C2.00022 20.7389 4.23888 18.5002 7 18.5C7.65695 18.5 8.2847 18.6301 8.86035 18.8613C8.91594 18.8837 8.9807 18.8677 9.01855 18.8213C10.6676 16.7967 13.1814 15.5001 15.999 15.5ZM15.999 17.5C13.5209 17.5001 11.3419 18.7875 10.0967 20.7344C9.40782 21.8116 9.00602 23.0898 8.99902 24.4639C8.99896 24.4757 8.99902 24.4881 8.99902 24.5C8.99902 24.5654 9.00067 24.6313 9.00293 24.6963C9.00468 24.7437 9.03214 24.7866 9.07422 24.8086C11.145 25.8885 13.4992 26.4999 15.999 26.5C18.4987 26.5 20.8531 25.8884 22.9238 24.8086C22.9658 24.7866 22.9922 24.7436 22.9941 24.6963C22.9967 24.6313 22.999 24.5655 22.999 24.5C22.999 24.487 22.9991 24.475 22.999 24.4639C22.992 23.0901 22.59 21.8124 21.9014 20.7354C20.6561 18.7881 18.4775 17.5 15.999 17.5ZM7 20.5C5.52205 20.5002 4.29373 21.5696 4.0459 22.9766C4.03442 23.0421 4.07541 23.1048 4.13965 23.1221C5.05101 23.3671 6.00925 23.5 7 23.5C7.03056 23.5 7.05688 23.4756 7.06055 23.4453C7.17088 22.502 7.42739 21.6022 7.80664 20.7705C7.84035 20.6963 7.80179 20.6085 7.72266 20.5889C7.49158 20.5315 7.2495 20.5 7 20.5ZM25 20.5C24.7496 20.5 24.5064 20.5312 24.2744 20.5889C24.1955 20.6086 24.1569 20.6964 24.1904 20.7705C24.5694 21.6014 24.827 22.5 24.9375 23.4424C24.9414 23.4742 24.968 23.4998 25 23.5C25.9901 23.5 26.9485 23.3677 27.8594 23.123C27.9235 23.1057 27.9645 23.043 27.9531 22.9775C27.7057 21.5702 26.4783 20.5001 25 20.5ZM6.99902 8.5C9.20803 8.5 10.9988 10.291 10.999 12.5C10.999 14.7091 9.20816 16.5 6.99902 16.5C4.79005 16.4998 2.99902 14.709 2.99902 12.5C2.99924 10.2912 4.79019 8.5002 6.99902 8.5ZM24.999 8.5C27.208 8.5 28.9988 10.291 28.999 12.5C28.999 14.7091 27.2082 16.5 24.999 16.5C22.7901 16.4998 20.999 14.709 20.999 12.5C20.9992 10.2912 22.7902 8.5002 24.999 8.5ZM6.99902 10.5C5.89476 10.5002 4.99924 11.3957 4.99902 12.5C4.99902 13.6044 5.89462 14.4998 6.99902 14.5C8.10359 14.5 8.99902 13.6046 8.99902 12.5C8.9988 11.3956 8.10346 10.5 6.99902 10.5ZM24.999 10.5C23.8948 10.5002 22.9992 11.3957 22.999 12.5C22.999 13.6044 23.8946 14.4998 24.999 14.5C26.1036 14.5 26.999 13.6046 26.999 12.5C26.9988 11.3956 26.1035 10.5 24.999 10.5ZM15.999 3.5C18.7603 3.5 20.9988 5.73876 20.999 8.5C20.999 11.2614 18.7604 13.5 15.999 13.5C13.2378 13.4998 10.999 11.2613 10.999 8.5C10.9992 5.73888 13.2379 3.5002 15.999 3.5ZM15.999 5.5C14.3425 5.5002 12.9992 6.84345 12.999 8.5C12.999 10.1567 14.3423 11.4998 15.999 11.5C17.6559 11.5 18.999 10.1569 18.999 8.5C18.9988 6.84333 17.6557 5.5 15.999 5.5Z" fill="#30333B"/>
</svg>
