<svg width="1920" height="692" viewBox="0 0 1920 692" fill="none" xmlns="http://www.w3.org/2000/svg">
<rect y="0.357532" width="119" height="119" rx="7.5" transform="matrix(0.933901 0.357532 -0.933901 0.357532 1640.41 177.23)" stroke="#686AD2" stroke-opacity="0.33"/>
<rect y="0.357532" width="119" height="119" rx="7.5" transform="matrix(0.933901 0.357532 -0.933901 0.357532 1756.21 221.564)" stroke="#686AD2" stroke-opacity="0.33"/>
<rect y="0.357532" width="119" height="119" rx="7.5" transform="matrix(0.933901 0.357532 -0.933901 0.357532 1872.01 265.898)" stroke="#686AD2" stroke-opacity="0.33"/>
<rect y="0.357532" width="119" height="119" rx="7.5" transform="matrix(0.933901 0.357532 -0.933901 0.357532 1987.82 310.232)" stroke="#686AD2" stroke-opacity="0.33"/>
<rect y="0.357532" width="119" height="119" rx="7.5" transform="matrix(0.933901 0.357532 -0.933901 0.357532 1524.6 221.564)" stroke="#686AD2" stroke-opacity="0.33"/>
<rect y="0.357532" width="119" height="119" rx="7.5" transform="matrix(0.933901 0.357532 -0.933901 0.357532 1640.41 265.898)" stroke="#686AD2" stroke-opacity="0.33"/>
<rect y="0.357532" width="119" height="119" rx="7.5" transform="matrix(0.933901 0.357532 -0.933901 0.357532 1756.21 310.232)" stroke="#686AD2" stroke-opacity="0.33"/>
<rect y="0.357532" width="119" height="119" rx="7.5" transform="matrix(0.933901 0.357532 -0.933901 0.357532 1872.01 354.566)" stroke="#686AD2" stroke-opacity="0.33"/>
<rect y="0.357532" width="119" height="119" rx="7.5" transform="matrix(0.933901 0.357532 -0.933901 0.357532 1987.82 398.9)" stroke="#686AD2" stroke-opacity="0.33"/>
<rect y="0.357532" width="119" height="119" rx="7.5" transform="matrix(0.933901 0.357532 -0.933901 0.357532 1408.8 265.898)" stroke="#686AD2" stroke-opacity="0.33"/>
<rect y="0.357532" width="119" height="119" rx="7.5" transform="matrix(0.933901 0.357532 -0.933901 0.357532 1524.6 310.232)" stroke="#686AD2" stroke-opacity="0.33"/>
<rect y="0.357532" width="119" height="119" rx="7.5" transform="matrix(0.933901 0.357532 -0.933901 0.357532 1640.41 354.566)" stroke="#686AD2" stroke-opacity="0.33"/>
<rect y="0.357532" width="119" height="119" rx="7.5" transform="matrix(0.933901 0.357532 -0.933901 0.357532 1756.21 398.9)" stroke="#686AD2" stroke-opacity="0.33"/>
<rect y="0.357532" width="119" height="119" rx="7.5" transform="matrix(0.933901 0.357532 -0.933901 0.357532 1872.01 443.234)" stroke="#686AD2" stroke-opacity="0.33"/>
<rect y="0.357532" width="119" height="119" rx="7.5" transform="matrix(0.933901 0.357532 -0.933901 0.357532 1987.82 487.568)" stroke="#686AD2" stroke-opacity="0.33"/>
<rect y="0.357532" width="119" height="119" rx="7.5" transform="matrix(0.933901 0.357532 -0.933901 0.357532 1292.99 310.232)" stroke="#686AD2" stroke-opacity="0.33"/>
<rect y="0.357532" width="119" height="119" rx="7.5" transform="matrix(0.933901 0.357532 -0.933901 0.357532 1408.8 354.566)" stroke="#686AD2" stroke-opacity="0.33"/>
<rect y="0.357532" width="119" height="119" rx="7.5" transform="matrix(0.933901 0.357532 -0.933901 0.357532 1524.6 398.9)" stroke="#686AD2" stroke-opacity="0.33"/>
<rect y="0.357532" width="119" height="119" rx="7.5" transform="matrix(0.933901 0.357532 -0.933901 0.357532 1640.41 443.234)" stroke="#686AD2" stroke-opacity="0.33"/>
<rect y="0.357532" width="119" height="119" rx="7.5" transform="matrix(0.933901 0.357532 -0.933901 0.357532 1756.21 487.568)" stroke="#686AD2" stroke-opacity="0.33"/>
<rect y="0.357532" width="119" height="119" rx="7.5" transform="matrix(0.933901 0.357532 -0.933901 0.357532 1872.01 531.902)" stroke="#686AD2" stroke-opacity="0.33"/>
<rect y="0.357532" width="119" height="119" rx="7.5" transform="matrix(0.933901 0.357532 -0.933901 0.357532 1987.82 576.236)" stroke="#686AD2" stroke-opacity="0.33"/>
<rect y="0.357532" width="119" height="119" rx="7.5" transform="matrix(0.933901 0.357532 -0.933901 0.357532 1177.19 354.566)" stroke="#686AD2" stroke-opacity="0.33"/>
<rect y="0.357532" width="119" height="119" rx="7.5" transform="matrix(0.933901 0.357532 -0.933901 0.357532 1292.99 398.9)" stroke="#686AD2" stroke-opacity="0.33"/>
<rect y="0.357532" width="119" height="119" rx="7.5" transform="matrix(0.933901 0.357532 -0.933901 0.357532 1408.8 443.234)" stroke="#686AD2" stroke-opacity="0.33"/>
<rect y="0.357532" width="119" height="119" rx="7.5" transform="matrix(0.933901 0.357532 -0.933901 0.357532 1524.6 487.568)" stroke="#686AD2" stroke-opacity="0.33"/>
<rect y="0.357532" width="119" height="119" rx="7.5" transform="matrix(0.933901 0.357532 -0.933901 0.357532 1640.41 531.902)" stroke="#686AD2" stroke-opacity="0.33"/>
<rect y="0.357532" width="119" height="119" rx="7.5" transform="matrix(0.933901 0.357532 -0.933901 0.357532 1756.21 576.236)" stroke="#686AD2" stroke-opacity="0.33"/>
<rect y="0.357532" width="119" height="119" rx="7.5" transform="matrix(0.933901 0.357532 -0.933901 0.357532 1872.01 620.57)" stroke="#686AD2" stroke-opacity="0.33"/>
<rect y="0.357532" width="119" height="119" rx="7.5" transform="matrix(0.933901 0.357532 -0.933901 0.357532 1987.82 664.904)" stroke="#686AD2" stroke-opacity="0.33"/>
<rect y="0.357532" width="119" height="119" rx="7.5" transform="matrix(0.933901 0.357532 -0.933901 0.357532 1061.39 398.9)" stroke="#686AD2" stroke-opacity="0.33"/>
<rect y="0.357532" width="119" height="119" rx="7.5" transform="matrix(0.933901 0.357532 -0.933901 0.357532 1177.19 443.234)" stroke="#686AD2" stroke-opacity="0.33"/>
<rect y="0.357532" width="119" height="119" rx="7.5" transform="matrix(0.933901 0.357532 -0.933901 0.357532 1292.99 487.568)" stroke="#686AD2" stroke-opacity="0.33"/>
<rect y="0.357532" width="119" height="119" rx="7.5" transform="matrix(0.933901 0.357532 -0.933901 0.357532 1408.8 531.902)" stroke="#686AD2" stroke-opacity="0.33"/>
<rect y="0.357532" width="119" height="119" rx="7.5" transform="matrix(0.933901 0.357532 -0.933901 0.357532 1524.6 576.236)" stroke="#686AD2" stroke-opacity="0.33"/>
<rect y="0.357532" width="119" height="119" rx="7.5" transform="matrix(0.933901 0.357532 -0.933901 0.357532 1640.41 620.57)" stroke="#686AD2" stroke-opacity="0.33"/>
<rect y="0.357532" width="119" height="119" rx="7.5" transform="matrix(0.933901 0.357532 -0.933901 0.357532 1756.21 664.904)" stroke="#686AD2" stroke-opacity="0.33"/>
<rect y="0.357532" width="119" height="119" rx="7.5" transform="matrix(0.933901 0.357532 -0.933901 0.357532 945.583 443.234)" stroke="#686AD2" stroke-opacity="0.33"/>
<rect y="0.357532" width="119" height="119" rx="7.5" transform="matrix(0.933901 0.357532 -0.933901 0.357532 1061.39 487.568)" stroke="#686AD2" stroke-opacity="0.33"/>
<rect y="0.357532" width="119" height="119" rx="7.5" transform="matrix(0.933901 0.357532 -0.933901 0.357532 1177.19 531.902)" stroke="#686AD2" stroke-opacity="0.33"/>
<rect y="0.357532" width="119" height="119" rx="7.5" transform="matrix(0.933901 0.357532 -0.933901 0.357532 1292.99 576.236)" stroke="#686AD2" stroke-opacity="0.33"/>
<rect y="0.357532" width="119" height="119" rx="7.5" transform="matrix(0.933901 0.357532 -0.933901 0.357532 1408.8 620.57)" stroke="#686AD2" stroke-opacity="0.33"/>
<rect y="0.357532" width="119" height="119" rx="7.5" transform="matrix(0.933901 0.357532 -0.933901 0.357532 1524.6 664.904)" stroke="#686AD2" stroke-opacity="0.33"/>
<rect y="0.357532" width="119" height="119" rx="7.5" transform="matrix(0.933901 0.357532 -0.933901 0.357532 829.779 487.568)" stroke="#686AD2" stroke-opacity="0.33"/>
<rect y="0.357532" width="119" height="119" rx="7.5" transform="matrix(0.933901 0.357532 -0.933901 0.357532 945.583 531.902)" stroke="#686AD2" stroke-opacity="0.33"/>
<rect y="0.357532" width="119" height="119" rx="7.5" transform="matrix(0.933901 0.357532 -0.933901 0.357532 1061.39 576.236)" stroke="#686AD2" stroke-opacity="0.33"/>
<rect y="0.357532" width="119" height="119" rx="7.5" transform="matrix(0.933901 0.357532 -0.933901 0.357532 1177.19 620.57)" stroke="#686AD2" stroke-opacity="0.33"/>
<rect y="0.357532" width="119" height="119" rx="7.5" transform="matrix(0.933901 0.357532 -0.933901 0.357532 1292.99 664.904)" stroke="#686AD2" stroke-opacity="0.33"/>
<rect y="0.357532" width="119" height="119" rx="7.5" transform="matrix(0.933901 0.357532 -0.933901 0.357532 713.976 531.902)" stroke="#686AD2" stroke-opacity="0.33"/>
<rect y="0.357532" width="119" height="119" rx="7.5" transform="matrix(0.933901 0.357532 -0.933901 0.357532 829.779 576.236)" stroke="#686AD2" stroke-opacity="0.33"/>
<rect y="0.357532" width="119" height="119" rx="7.5" transform="matrix(0.933901 0.357532 -0.933901 0.357532 945.583 620.57)" stroke="#686AD2" stroke-opacity="0.33"/>
<rect y="0.357532" width="119" height="119" rx="7.5" transform="matrix(0.933901 0.357532 -0.933901 0.357532 1061.39 664.904)" stroke="#686AD2" stroke-opacity="0.33"/>
<rect y="0.357532" width="119" height="119" rx="7.5" transform="matrix(0.933901 0.357532 -0.933901 0.357532 598.172 576.236)" stroke="#686AD2" stroke-opacity="0.33"/>
<rect y="0.357532" width="119" height="119" rx="7.5" transform="matrix(0.933901 0.357532 -0.933901 0.357532 713.976 620.57)" stroke="#686AD2" stroke-opacity="0.33"/>
<rect y="0.357532" width="119" height="119" rx="7.5" transform="matrix(0.933901 0.357532 -0.933901 0.357532 829.779 664.904)" stroke="#686AD2" stroke-opacity="0.33"/>
<rect y="0.357532" width="119" height="119" rx="7.5" transform="matrix(0.933901 0.357532 -0.933901 0.357532 482.368 620.57)" stroke="#686AD2" stroke-opacity="0.33"/>
<rect y="0.357532" width="119" height="119" rx="7.5" transform="matrix(0.933901 0.357532 -0.933901 0.357532 598.172 664.904)" stroke="#686AD2" stroke-opacity="0.33"/>
<rect y="0.357532" width="119" height="119" rx="7.5" transform="matrix(0.933901 0.357532 -0.933901 0.357532 366.565 664.904)" stroke="#686AD2" stroke-opacity="0.33"/>
<rect y="0.357532" width="119" height="119" rx="7.5" transform="matrix(0.933901 0.357532 -0.933901 0.357532 -96.5763 221.9)" stroke="#686AD2" stroke-opacity="0.33"/>
<rect y="0.357532" width="119" height="119" rx="7.5" transform="matrix(0.933901 0.357532 -0.933901 0.357532 19.2275 266.234)" stroke="#686AD2" stroke-opacity="0.33"/>
<rect y="0.357532" width="119" height="119" rx="7.5" transform="matrix(0.933901 0.357532 -0.933901 0.357532 135.031 310.568)" stroke="#686AD2" stroke-opacity="0.33"/>
<rect y="0.357532" width="119" height="119" rx="7.5" transform="matrix(0.933901 0.357532 -0.933901 0.357532 250.835 354.902)" stroke="#686AD2" stroke-opacity="0.33"/>
<rect y="0.357532" width="119" height="119" rx="7.5" transform="matrix(0.933901 0.357532 -0.933901 0.357532 366.639 399.236)" stroke="#686AD2" stroke-opacity="0.33"/>
<rect y="0.357532" width="119" height="119" rx="7.5" transform="matrix(0.933901 0.357532 -0.933901 0.357532 482.442 443.57)" stroke="#686AD2" stroke-opacity="0.33"/>
<rect y="0.357532" width="119" height="119" rx="7.5" transform="matrix(0.933901 0.357532 -0.933901 0.357532 598.246 487.904)" stroke="#686AD2" stroke-opacity="0.33"/>
<rect y="0.357532" width="119" height="119" rx="7.5" transform="matrix(0.933901 0.357532 -0.933901 0.357532 -96.5763 310.568)" stroke="#686AD2" stroke-opacity="0.33"/>
<rect y="0.357532" width="119" height="119" rx="7.5" transform="matrix(0.933901 0.357532 -0.933901 0.357532 19.2275 354.902)" stroke="#686AD2" stroke-opacity="0.33"/>
<rect y="0.357532" width="119" height="119" rx="7.5" transform="matrix(0.933901 0.357532 -0.933901 0.357532 135.031 399.236)" stroke="#686AD2" stroke-opacity="0.33"/>
<rect y="0.357532" width="119" height="119" rx="7.5" transform="matrix(0.933901 0.357532 -0.933901 0.357532 250.835 443.57)" stroke="#686AD2" stroke-opacity="0.33"/>
<rect y="0.357532" width="119" height="119" rx="7.5" transform="matrix(0.933901 0.357532 -0.933901 0.357532 366.639 487.904)" stroke="#686AD2" stroke-opacity="0.33"/>
<rect y="0.357532" width="119" height="119" rx="7.5" transform="matrix(0.933901 0.357532 -0.933901 0.357532 482.442 532.238)" stroke="#686AD2" stroke-opacity="0.33"/>
<rect y="0.357532" width="119" height="119" rx="7.5" transform="matrix(0.933901 0.357532 -0.933901 0.357532 -96.5763 399.236)" stroke="#686AD2" stroke-opacity="0.33"/>
<rect y="0.357532" width="119" height="119" rx="7.5" transform="matrix(0.933901 0.357532 -0.933901 0.357532 19.2275 443.57)" stroke="#686AD2" stroke-opacity="0.33"/>
<rect y="0.357532" width="119" height="119" rx="7.5" transform="matrix(0.933901 0.357532 -0.933901 0.357532 135.031 487.904)" stroke="#686AD2" stroke-opacity="0.33"/>
<rect y="0.357532" width="119" height="119" rx="7.5" transform="matrix(0.933901 0.357532 -0.933901 0.357532 250.835 532.238)" stroke="#686AD2" stroke-opacity="0.33"/>
<rect y="0.357532" width="119" height="119" rx="7.5" transform="matrix(0.933901 0.357532 -0.933901 0.357532 366.639 576.572)" stroke="#686AD2" stroke-opacity="0.33"/>
<rect y="0.357532" width="119" height="119" rx="7.5" transform="matrix(0.933901 0.357532 -0.933901 0.357532 -96.5763 487.904)" stroke="#686AD2" stroke-opacity="0.33"/>
<rect y="0.357532" width="119" height="119" rx="7.5" transform="matrix(0.933901 0.357532 -0.933901 0.357532 19.2275 532.238)" stroke="#686AD2" stroke-opacity="0.33"/>
<rect y="0.357532" width="119" height="119" rx="7.5" transform="matrix(0.933901 0.357532 -0.933901 0.357532 135.031 576.572)" stroke="#686AD2" stroke-opacity="0.33"/>
<rect y="0.357532" width="119" height="119" rx="7.5" transform="matrix(0.933901 0.357532 -0.933901 0.357532 250.835 620.906)" stroke="#686AD2" stroke-opacity="0.33"/>
<rect y="0.357532" width="119" height="119" rx="7.5" transform="matrix(0.933901 0.357532 -0.933901 0.357532 -96.5763 576.572)" stroke="#686AD2" stroke-opacity="0.33"/>
<rect y="0.357532" width="119" height="119" rx="7.5" transform="matrix(0.933901 0.357532 -0.933901 0.357532 19.2275 620.906)" stroke="#686AD2" stroke-opacity="0.33"/>
<rect y="0.357532" width="119" height="119" rx="7.5" transform="matrix(0.933901 0.357532 -0.933901 0.357532 135.031 665.24)" stroke="#686AD2" stroke-opacity="0.33"/>
<rect y="0.357532" width="119" height="119" rx="7.5" transform="matrix(0.933901 0.357532 -0.933901 0.357532 -96.5763 665.24)" stroke="#686AD2" stroke-opacity="0.33"/>
</svg>
