<svg width="256" height="256" viewBox="0 0 256 256" fill="none" xmlns="http://www.w3.org/2000/svg">
  <rect width="256" height="256" rx="64" fill="#101C3D"/>
  <path d="M64 76C64 69.3726 69.3726 64 76 64H180C186.627 64 192 69.3726 192 76V108C192 114.627 186.627 120 180 120H142V180C142 186.627 136.627 192 130 192H126C119.373 192 114 186.627 114 180V120H76C69.3726 120 64 114.627 64 108V76Z" fill="#4ED0FF"/>
  <path d="M150 134C150 129.582 153.582 126 158 126H196C200.418 126 204 129.582 204 134V180C204 186.627 198.627 192 192 192H158C153.582 192 150 188.418 150 184V134Z" fill="#6F4BFF"/>
</svg>
