<svg width="372" height="260" viewBox="0 0 372 260" fill="none" xmlns="http://www.w3.org/2000/svg">
<path fill-rule="evenodd" clip-rule="evenodd" d="M48 130.083C48 98.5317 109.607 73.125 185.663 73.125C261.884 73.125 323.492 98.5317 323.492 130.083C323.492 161.467 261.883 186.875 185.663 186.875C109.607 186.875 48 161.467 48 130.083Z" fill="#787A7C"/>
<path fill-rule="evenodd" clip-rule="evenodd" d="M219.219 74.8195L152.781 185.243C92.6169 179.166 48 156.789 48 130.083C48 98.5317 109.607 73.125 185.663 73.125C197.241 73.1234 208.48 73.7144 219.219 74.8195Z" fill="#B74241"/>
<path fill-rule="evenodd" clip-rule="evenodd" d="M70.917 128.587C70.917 101.685 121.566 79.7661 184.17 79.7661C246.776 79.7661 297.589 101.685 297.589 128.587C297.589 155.488 246.776 177.243 184.17 177.243C121.566 177.243 70.917 155.488 70.917 128.587Z" fill="#D0D1D3" stroke="white" stroke-width="1.48759" stroke-miterlimit="2.613"/>
<path fill-rule="evenodd" clip-rule="evenodd" d="M155.44 153.994C153.614 153.33 151.953 153.165 150.293 153.165C144.148 153.165 139.997 156.984 139.997 162.632C139.997 165.285 140.994 167.447 142.986 169.272C144.906 170.696 147.239 171.454 149.63 171.43C152.619 171.43 154.944 170.601 157.102 168.941V164.125C157.102 162.632 157.102 161.135 157.434 159.975C155.773 160.139 154.611 160.139 153.45 160.139C152.453 160.139 151.125 160.139 149.299 159.975C149.465 160.639 149.465 161.304 149.465 161.799C149.465 162.464 149.465 162.962 149.299 163.627H151.956V167.279C151.291 167.613 150.794 167.613 150.462 167.613C147.306 167.613 145.314 165.621 145.314 162.298C145.314 158.974 147.306 156.818 150.628 156.818C152.29 156.818 153.784 157.316 155.444 158.147V153.994H155.44ZM159.593 153.664C159.759 155.822 159.759 158.145 159.759 160.473C159.759 162.962 159.759 166.615 159.593 171.099C160.59 170.935 161.421 170.935 162.25 170.935C163.079 170.935 163.911 170.935 164.741 171.099C164.741 169.107 164.575 167.612 164.575 166.949V163.791H166.899L168.727 167.279C169.392 168.442 169.89 169.605 170.387 171.101C171.55 170.936 172.545 170.936 173.542 170.936C174.373 170.936 175.37 170.936 176.532 171.101C175.701 169.772 174.87 168.609 174.373 167.613L171.882 163.296C174.539 162.798 176.033 161.135 176.033 158.481C176.033 155.159 173.709 153.665 169.059 153.665L159.593 153.664ZM164.575 160.304V157.15H167.896C169.888 157.15 170.719 157.314 170.719 158.644C170.719 159.807 169.724 160.304 167.896 160.304H164.575ZM186.992 153.164C184.503 153.164 182.176 153.993 180.516 155.487C178.524 157.15 177.527 159.473 177.527 162.296C177.527 165.119 178.524 167.445 180.516 169.105C182.176 170.599 184.501 171.429 186.992 171.429C189.484 171.429 191.807 170.599 193.471 169.105C195.463 167.445 196.458 165.119 196.458 162.296C196.458 159.473 195.463 157.15 193.471 155.487C191.807 153.994 189.484 153.164 186.992 153.164ZM186.992 156.982C189.318 156.982 191.143 158.974 191.143 162.298C191.143 165.455 189.318 167.613 186.992 167.613C184.669 167.613 182.841 165.455 182.841 162.298C182.841 158.974 184.667 156.982 186.992 156.982ZM198.617 153.494C198.781 155.821 198.951 158.145 198.951 160.638V162.462C198.951 165.453 199.115 167.612 200.775 169.272C202.269 170.765 204.263 171.43 206.92 171.43C210.077 171.43 212.4 170.27 213.729 168.442C214.725 166.782 214.892 164.79 214.892 162.298V160.473C214.892 158.147 214.892 155.822 215.057 153.496C214.059 153.664 213.229 153.664 212.4 153.664C211.571 153.664 210.74 153.664 209.743 153.496C209.908 154.825 209.908 156.487 209.908 158.147V163.627C209.908 166.284 208.912 167.613 206.754 167.613C204.595 167.613 203.766 166.284 203.766 163.627V159.641C203.766 157.151 203.931 154.993 204.097 153.496C203.101 153.664 202.105 153.664 201.274 153.664C200.443 153.664 199.615 153.664 198.617 153.494ZM218.045 153.664C218.379 156.321 218.379 159.31 218.379 162.298V163.961C218.379 166.284 218.211 168.776 218.045 171.101C219.043 170.936 220.037 170.936 220.868 170.936C221.533 170.936 222.531 170.936 223.36 171.101C223.196 168.942 223.196 167.449 223.196 166.95V164.293H227.014C231.665 164.293 234.154 162.301 234.154 158.813C234.154 155.161 231.996 153.667 227.514 153.667H218.045V153.664ZM223.196 157.316H226.183C228.011 157.316 228.84 157.481 228.84 158.81C228.84 160.139 228.011 160.638 226.183 160.638H223.196V157.316Z" fill="black"/>
<path fill-rule="evenodd" clip-rule="evenodd" d="M154.278 152.83C152.451 152.168 150.791 152 149.131 152C142.986 152 138.835 155.822 138.835 161.302C138.835 164.125 139.832 166.284 141.824 167.942C143.65 169.436 145.809 170.269 148.466 170.269C151.455 170.269 153.78 169.436 155.938 167.776V162.961C155.938 161.467 155.938 159.973 156.105 158.81C154.611 158.974 153.448 158.974 152.284 158.974C151.287 158.974 149.96 158.974 148.134 158.81V162.462H150.791V166.118C150.126 166.282 149.627 166.448 149.295 166.448C146.14 166.448 144.147 164.456 144.147 161.133C144.147 157.814 146.14 155.656 149.461 155.656C151.123 155.656 152.617 156.151 154.277 156.982L154.278 152.83ZM158.431 152.499C158.597 154.657 158.597 156.981 158.597 159.308C158.597 161.798 158.597 165.453 158.431 169.935C159.428 169.77 160.257 169.77 161.088 169.77C161.752 169.77 162.748 169.77 163.579 169.935C163.412 167.942 163.412 166.447 163.412 165.784V162.63H165.737L167.563 166.118C168.062 167.113 168.726 168.441 169.225 169.936C170.386 169.772 171.383 169.772 172.38 169.772C173.211 169.772 174.208 169.772 175.37 169.936C174.373 168.607 173.708 167.279 173.211 166.448L170.72 162.131C173.377 161.633 174.707 159.973 174.707 157.316C174.707 153.994 172.548 152.501 167.897 152.501L158.431 152.499ZM163.411 159.144V155.987H166.732C168.559 155.987 169.556 156.151 169.556 157.481C169.556 158.644 168.559 159.144 166.732 159.144H163.411ZM185.83 152C183.339 152 181.014 152.83 179.353 154.327C177.36 155.987 176.363 158.31 176.363 161.133C176.363 163.959 177.36 166.282 179.353 167.942C181.014 169.436 183.337 170.269 185.83 170.269C188.319 170.269 190.647 169.436 192.305 167.942C194.298 166.282 195.293 163.959 195.293 161.133C195.293 158.31 194.298 155.987 192.305 154.327C190.647 152.83 188.321 152 185.83 152ZM185.83 155.656C188.154 155.656 189.982 157.814 189.982 161.133C189.982 164.29 188.154 166.448 185.83 166.448C183.505 166.448 181.513 164.29 181.513 161.133C181.513 157.814 183.505 155.656 185.83 155.656ZM197.453 152.334C197.621 154.657 197.621 156.982 197.621 159.475V161.302C197.621 164.29 197.952 166.448 199.613 168.112C201.107 169.606 203.101 170.27 205.755 170.27C208.912 170.27 211.235 169.107 212.564 167.279C213.563 165.619 213.727 163.627 213.727 161.135V159.31C213.727 156.984 213.727 154.659 213.892 152.336C212.896 152.501 211.899 152.501 211.069 152.501C210.404 152.501 209.409 152.501 208.576 152.336C208.744 153.665 208.744 155.324 208.744 156.984V162.464C208.744 165.121 207.746 166.285 205.587 166.285C203.429 166.285 202.599 165.122 202.599 162.464V158.481C202.599 155.988 202.599 153.83 202.93 152.336C201.935 152.501 200.938 152.501 200.107 152.501C199.276 152.501 198.45 152.499 197.453 152.334ZM216.881 152.499C217.049 155.156 217.049 157.979 217.049 161.133V162.796C217.049 165.119 217.049 167.612 216.881 169.936C217.88 169.772 218.873 169.772 219.707 169.772C220.369 169.772 221.201 169.772 222.197 169.936C222.032 167.613 222.032 166.284 222.032 165.785V163.128H225.851C230.501 163.128 232.994 161.136 232.994 157.648C232.994 153.996 230.835 152.502 226.184 152.502H216.881V152.499ZM222.031 156.151H225.018C226.846 156.151 227.675 156.319 227.675 157.645C227.675 158.974 226.846 159.473 225.018 159.473H222.031V156.151Z" fill="white"/>
<path fill-rule="evenodd" clip-rule="evenodd" d="M111.269 97.8655C111.601 107.995 111.933 116.464 111.933 122.941C111.933 129.583 111.601 137.886 111.269 148.184H128.704C138.337 148.184 145.311 147.185 150.957 143.034C157.599 138.219 160.754 131.577 160.754 122.943C160.754 113.643 157.599 106.835 150.459 102.02C145.311 98.5318 138.337 97.8687 128.704 97.8687H111.269V97.8655ZM126.213 108.66H130.034C140.329 108.66 145.477 113.309 145.477 122.941C145.477 132.572 140.329 137.388 130.034 137.388H126.213V108.66ZM167.23 97.8655C167.728 105.172 167.728 113.641 167.728 122.941V127.425C167.728 134.234 167.728 141.208 167.23 148.184H197.786C210.74 148.184 217.049 143.867 217.049 134.066C217.049 126.263 212.564 122.112 204.095 121.946C210.738 119.954 214.226 115.967 214.226 109.99C214.226 99.861 207.252 97.8687 191.972 97.8687H167.23V97.8655ZM181.678 108.327H192.47C196.955 108.327 199.113 108.992 199.113 112.478C199.113 115.964 196.955 116.629 192.47 116.629H181.678V108.327ZM181.678 127.092H192.804C198.78 127.092 201.603 127.757 201.603 132.242C201.603 136.893 198.615 137.554 192.804 137.554H181.678V127.092ZM261.552 99.1948C255.242 97.3671 249.762 96.5378 244.781 96.5378C230.168 96.5378 221.365 103.844 221.365 113.643C221.365 121.78 227.175 126.595 238.967 128.422C246.773 129.419 250.925 129.585 250.925 133.571C250.925 136.893 247.438 138.883 240.46 138.883C234.814 138.883 228.839 137.554 222.529 134.9V145.362C229.169 148.019 235.314 149.513 241.294 149.513C256.238 149.513 265.039 142.039 265.039 131.579C265.039 123.275 260.058 118.294 249.927 116.632C241.125 115.304 235.979 115.471 235.979 111.152C235.979 108.163 238.967 106.503 244.947 106.503C250.758 106.503 256.073 107.997 261.553 110.82L261.552 99.1948Z" fill="black"/>
<path fill-rule="evenodd" clip-rule="evenodd" d="M109.775 96.3719C110.106 106.501 110.438 114.969 110.438 121.446C110.438 128.088 110.106 136.393 109.775 146.688H127.211C136.844 146.688 143.818 145.69 149.462 141.539C156.104 136.723 159.259 130.082 159.259 121.446C159.259 111.98 156.104 105.34 148.964 100.523C143.816 97.035 136.842 96.3719 127.211 96.3719H109.775ZM124.719 107.166H128.539C138.833 107.166 143.982 111.815 143.982 121.446C143.982 131.077 138.834 135.893 128.539 135.893H124.719V107.166ZM165.737 96.3719C166.235 103.678 166.235 112.146 166.235 121.446V125.929C166.235 132.739 166.235 139.713 165.737 146.688H196.293C209.244 146.688 215.556 142.368 215.556 132.571C215.556 124.766 211.071 120.615 202.602 120.449C209.242 118.457 212.73 114.472 212.73 108.494C212.73 98.3642 205.756 96.3719 190.479 96.3719H165.737ZM180.183 106.834H190.977C195.462 106.834 197.62 107.498 197.62 110.984C197.62 114.471 195.462 115.135 190.977 115.135H180.183V106.834ZM180.183 125.599H191.311C197.286 125.599 200.11 126.263 200.11 130.748C200.11 135.396 197.122 136.06 191.311 136.06H180.183V125.599ZM260.058 97.7012C253.749 95.8734 248.269 95.0442 243.287 95.0442C228.672 95.0442 219.871 102.35 219.871 111.981C219.871 120.285 225.682 125.1 237.473 126.928C245.278 127.925 249.429 128.089 249.429 132.077C249.429 135.396 245.941 137.39 238.967 137.39C233.321 137.39 227.345 136.06 221.033 133.403V143.868C227.676 146.522 233.821 148.019 239.801 148.019C254.744 148.019 263.546 140.545 263.546 130.085C263.546 121.616 258.565 116.798 248.434 115.138C239.632 113.809 234.486 113.975 234.486 109.658C234.486 106.669 237.473 105.009 243.454 105.009C249.1 105.009 254.58 106.504 260.06 109.326L260.058 97.7012Z" fill="white"/>
</svg>
