<svg width="258" height="128" viewBox="0 0 258 128" fill="none" xmlns="http://www.w3.org/2000/svg">
<path fill-rule="evenodd" clip-rule="evenodd" d="M23.6309 40H59.5015V67.1741C58.9728 78.0324 48.377 87.3573 41.3581 88C34.1592 86.7033 23.7546 77.9986 23.6309 66.5652V40Z" fill="#FFCF01"/>
<path fill-rule="evenodd" clip-rule="evenodd" d="M57.3747 66.9258C57.1047 75.9463 47.9037 84.3691 41.2672 85.8575C35.9018 84.324 25.7784 76.713 25.7334 66.3733V53.1133H57.3747V66.9258Z" fill="#BF311A"/>
<path d="M30.3799 55.0415C32.352 54.6503 34.3895 54.7467 36.3161 55.3223C38.2426 55.898 40.0003 56.9355 41.4369 58.3452C43.7313 56.073 46.8278 54.8007 50.053 54.8047C50.8687 54.8032 51.6825 54.8825 52.4826 55.0415V76.0027C51.6829 75.8399 50.8691 75.7568 50.053 75.7547C46.8278 75.7506 43.7313 77.023 41.4369 79.2952C40.0053 77.8784 38.2476 76.8369 36.3192 76.2627C34.3907 75.6885 32.3509 75.5992 30.3799 76.0027V55.0415Z" fill="#003D79"/>
<mask id="mask0_7660_175705" style="mask-type:luminance" maskUnits="userSpaceOnUse" x="30" y="54" width="23" height="26">
<path d="M30.3799 55.0415C32.352 54.6503 34.3895 54.7467 36.3161 55.3223C38.2426 55.898 40.0003 56.9355 41.4369 58.3452C43.7313 56.073 46.8278 54.8007 50.053 54.8047C50.8687 54.8032 51.6825 54.8825 52.4826 55.0415V76.0027C51.6829 75.8399 50.8691 75.7568 50.053 75.7547C46.8278 75.7506 43.7313 77.023 41.4369 79.2952C40.0053 77.8784 38.2476 76.8369 36.3192 76.2627C34.3907 75.6885 32.3509 75.5992 30.3799 76.0027V55.0415Z" fill="white"/>
</mask>
<g mask="url(#mask0_7660_175705)">
<path d="M54.057 53.948H41.459V80.0509H54.057V53.948Z" fill="#007FB2"/>
</g>
<path d="M32.8319 74.2775C32.4556 74.2799 32.0799 74.3063 31.707 74.3564V56.3156C32.0792 56.2583 32.4554 56.2319 32.8319 56.2366C35.9425 56.2303 38.9388 57.4116 41.2118 59.5404C41.2934 59.6352 41.3838 59.722 41.4817 59.7997C41.5492 59.7208 41.6842 59.608 41.7517 59.5178C44.0121 57.3946 47.0003 56.2238 50.0979 56.2479C50.4739 56.2462 50.8496 56.2688 51.2227 56.3156V74.3564C50.8499 74.3059 50.4741 74.2795 50.0979 74.2775C46.8726 74.2735 43.7762 75.5458 41.4817 77.818C39.1763 75.5418 36.0678 74.2694 32.8319 74.2775Z" fill="white"/>
<path fill-rule="evenodd" clip-rule="evenodd" d="M37.1289 67.9178C37.1289 68.7724 37.3819 69.6078 37.8558 70.3182C38.3296 71.0286 39.0031 71.5821 39.791 71.9087C40.5788 72.2352 41.4456 72.3201 42.2816 72.1525C43.1176 71.985 43.8852 71.5725 44.4872 70.9674C45.0893 70.3624 45.4987 69.5918 45.6637 68.7534C45.8286 67.9149 45.7417 67.0462 45.4139 66.2573C45.0861 65.4684 44.5322 64.7947 43.8222 64.3216C43.1123 63.8484 42.2783 63.597 41.4257 63.5993C40.8605 63.5993 40.3009 63.711 39.7788 63.9282C39.2568 64.1454 38.7826 64.4636 38.3834 64.8648C37.9843 65.266 37.668 65.7421 37.4528 66.266C37.2375 66.7899 37.1274 67.3512 37.1289 67.9178Z" fill="#FFCF01"/>
<path d="M36.4091 67.9184C36.4091 68.9174 36.7047 69.8941 37.2584 70.7248C37.8121 71.5555 38.5991 72.203 39.5199 72.5853C40.4407 72.9676 41.4539 73.0677 42.4314 72.8727C43.4089 72.6778 44.3068 72.1967 45.0116 71.4903C45.7163 70.7838 46.1963 69.8837 46.3907 68.9039C46.5851 67.924 46.4853 66.9083 46.1039 65.9853C45.7225 65.0622 45.0766 64.2733 44.248 63.7182C43.4193 63.1632 42.445 62.8669 41.4483 62.8669C40.7861 62.8654 40.1302 62.9951 39.5181 63.2484C38.9061 63.5017 38.35 63.8738 37.8818 64.3431C37.4135 64.8125 37.0424 65.37 36.7897 65.9835C36.537 66.597 36.4076 67.2546 36.4091 67.9184ZM34.7781 65.1446L35.7117 63.5096L36.5891 64.017C36.871 63.6555 37.1958 63.3299 37.5564 63.0473L37.0503 62.1678L38.6813 61.232L39.1762 62.1002C39.6052 61.9376 40.0501 61.8205 40.5035 61.7506V60.7358H42.3819V61.7506C42.8319 61.8191 43.2732 61.9363 43.698 62.1002L44.2041 61.232L45.8351 62.1678L45.329 63.0473C45.6907 63.3367 46.0189 63.6657 46.3076 64.0283L47.1737 63.5209L48.1185 65.1446L47.2412 65.652C47.4019 66.0787 47.5187 66.5207 47.5899 66.9712H48.6022V68.8542H47.5899C47.5238 69.3083 47.4108 69.7542 47.2524 70.1847L48.1298 70.6809L47.1849 72.3158L46.3076 71.8084C46.0257 72.1699 45.7008 72.4956 45.3402 72.7781L45.8464 73.6576L44.2154 74.6048L43.7092 73.7253C43.2823 73.8944 42.8367 74.0117 42.3819 74.0748V75.0896H40.5035V74.0748C40.0535 74.0064 39.6122 73.8892 39.1874 73.7253L38.6813 74.6048L37.0503 73.6576L37.5564 72.7781C37.1985 72.4926 36.8739 72.1673 36.5891 71.8084L35.7117 72.3158L34.7781 70.6921L35.6555 70.1847C35.4831 69.7572 35.3623 69.3105 35.2955 68.8542H34.2832V66.9712H35.2955C35.3652 66.5167 35.4821 66.0708 35.6442 65.6407L34.7781 65.1446Z" fill="#FFCF01"/>
<path d="M40.8291 71.572C40.1205 71.572 40.008 70.2189 39.8843 68.6516L39.8168 67.8511C39.6931 65.7989 39.3894 65.269 39.2881 65.2351C39.1869 65.2013 38.782 66.3627 38.7257 67.8398V68.0202H35.7449C35.6961 68.0203 35.6491 68.0016 35.6135 67.9681C35.578 67.9345 35.5566 67.8886 35.5537 67.8398C35.5537 67.8146 35.5587 67.7897 35.5683 67.7664C35.5779 67.7432 35.592 67.722 35.6097 67.7042C35.6275 67.6864 35.6486 67.6723 35.6718 67.6627C35.695 67.6531 35.7198 67.6481 35.7449 67.6481H38.3545C38.4108 66.6784 38.5907 64.863 39.2881 64.863C39.4906 64.863 40.008 64.863 40.188 67.8172C40.188 68.0728 40.2105 68.3434 40.2555 68.6291C40.3455 69.6439 40.4692 71.1886 40.8291 71.1999C41.1891 71.2112 41.3241 69.5988 41.414 68.5501C41.549 66.9828 41.6727 65.6185 42.3589 65.6185C42.7976 65.6185 42.9888 66.3289 43.135 67.4C43.135 67.6368 43.2025 67.8623 43.225 68.0766C43.315 68.8659 43.4387 69.8243 43.6974 69.8356C43.7649 69.8356 43.9674 69.5762 44.1586 67.8172V67.6481H47.1394C47.164 67.6481 47.1884 67.6531 47.211 67.6628C47.2336 67.6726 47.2539 67.6869 47.2708 67.7049C47.2877 67.7228 47.3007 67.7441 47.309 67.7673C47.3174 67.7905 47.3209 67.8152 47.3194 67.8398C47.3194 67.8876 47.3004 67.9335 47.2666 67.9674C47.2329 68.0012 47.1871 68.0202 47.1394 68.0202H44.5298C44.3723 69.4071 44.1811 70.2076 43.7087 70.2076C43.2363 70.2076 43.0113 69.3169 42.8651 68.1893C42.8651 67.9638 42.8088 67.7383 42.7751 67.5128C42.5839 66.1372 42.3814 66.0582 42.3589 66.047C42.0102 66.047 41.8752 67.6706 41.7852 68.6403C41.6278 70.1964 41.5265 71.572 40.8291 71.572Z" fill="#003D79"/>
<path fill-rule="evenodd" clip-rule="evenodd" d="M31.6521 49.9564C31.2021 50.2721 31.1571 50.3623 31.0447 50.554C31.0216 50.5865 31.0081 50.6247 31.0056 50.6644C31.003 50.7042 31.0116 50.7438 31.0303 50.779C31.049 50.8141 31.0771 50.8433 31.1114 50.8633C31.1457 50.8833 31.1849 50.8934 31.2246 50.8923C31.5535 50.8182 31.8661 50.6844 32.147 50.4976C32.4412 50.3412 32.6661 50.0796 32.7769 49.7647C32.7769 49.6633 32.6869 49.5843 32.5294 49.5956C32.2069 49.6226 31.9006 49.7486 31.6521 49.9564ZM32.3382 48.8289C32.3378 48.8858 32.3508 48.9421 32.3762 48.9931C32.4016 49.044 32.4387 49.0882 32.4844 49.122C32.6194 49.2461 32.8219 49.122 32.9568 49.122C33.2202 49.0685 33.4871 49.0345 33.7555 49.0206C33.8398 49.0181 33.9237 49.0339 34.0014 49.067C34.079 49.1001 34.1486 49.1496 34.2054 49.2122C34.3533 49.381 34.4508 49.5881 34.4866 49.8098C34.5383 50.0958 34.4778 50.3906 34.3179 50.633C34.2488 50.774 34.1441 50.8945 34.0142 50.9825C33.9036 51.0619 33.7768 51.1158 33.643 51.1404C33.5633 51.1707 33.4752 51.1707 33.3955 51.1404C33.6042 51.0821 33.7917 50.9646 33.9354 50.8021C34.1056 50.6207 34.219 50.3934 34.2616 50.1481C34.2654 50.0342 34.2464 49.9207 34.2059 49.8142C34.1653 49.7077 34.104 49.6104 34.0254 49.528C33.9797 49.4845 33.9237 49.4534 33.8627 49.4376C33.8017 49.4218 33.7377 49.4219 33.6767 49.4377C33.5868 49.4377 33.4855 49.5505 33.463 49.6294C33.4367 49.7616 33.3788 49.8854 33.2943 49.9902C33.1706 50.0917 32.7769 50.4976 32.5969 50.6555C32.346 50.8596 32.0601 51.0162 31.7533 51.1178C31.6083 51.1831 31.4511 51.2169 31.2921 51.2169C31.1331 51.2169 30.9759 51.1831 30.8309 51.1178C30.7297 51.0501 30.7072 50.8585 30.7185 50.7119C30.7126 50.6061 30.7309 50.5004 30.7718 50.4027C30.8127 50.3051 30.8753 50.218 30.9547 50.1481C31.184 49.9439 31.4326 49.7626 31.697 49.6069C31.7545 49.5737 31.8023 49.5261 31.8358 49.4687C31.8693 49.4114 31.8874 49.3463 31.8883 49.2799C31.9076 49.2223 31.9121 49.1607 31.9014 49.1009C31.8907 49.0411 31.8651 48.985 31.8269 48.9377C31.7888 48.8905 31.7393 48.8537 31.6832 48.8307C31.6271 48.8077 31.5661 48.7993 31.5058 48.8063C31.3259 48.8063 31.2696 48.8852 31.1346 48.8627C30.9997 48.8401 30.9884 48.7161 31.0109 48.5921C31.0334 48.468 31.1796 48.3891 31.2809 48.3666C31.4218 48.361 31.5616 48.3383 31.697 48.2989C31.819 48.2585 31.9331 48.1975 32.0345 48.1185C32.0345 48.1185 32.1132 47.9043 32.1582 47.7577C32.2017 47.6611 32.2672 47.5762 32.3494 47.5096C32.3494 47.5096 32.5182 47.3856 32.5744 47.4307C32.6035 47.4689 32.6409 47.4999 32.6838 47.5214C32.7267 47.5429 32.7739 47.5543 32.8219 47.5547C32.9505 47.5527 33.0741 47.5047 33.1706 47.4194C33.4326 47.2357 33.7113 47.0772 34.0029 46.9458C34.1166 46.9093 34.2379 46.9035 34.3545 46.9293C34.4711 46.9551 34.5788 47.0113 34.6666 47.0924C34.8335 47.2381 34.9448 47.4374 34.9815 47.6562C35.0003 47.7438 34.9956 47.8347 34.968 47.9199C34.9403 48.0051 34.8907 48.0814 34.8241 48.1411C34.6778 48.22 34.4866 48.4568 34.2954 48.4568C34.1042 48.4568 33.9804 48.3891 34.0142 48.3215C34.0479 48.2538 34.1829 48.1974 34.2729 48.0847C34.3629 47.9719 34.6441 47.7351 34.6666 47.6449C34.6802 47.6005 34.6822 47.5533 34.6724 47.5079C34.6625 47.4625 34.6411 47.4203 34.6103 47.3856C34.5316 47.3067 34.5316 47.2616 34.2504 47.2277C33.9692 47.1939 33.5193 47.6111 33.3505 47.8253C33.1096 48.0602 32.8323 48.2544 32.5294 48.4004C32.4542 48.4369 32.394 48.4985 32.3591 48.5746C32.3242 48.6507 32.3168 48.7366 32.3382 48.8176V48.8289Z" fill="#003D79"/>
<path fill-rule="evenodd" clip-rule="evenodd" d="M37.9722 47.4531C38.1786 47.6363 38.3107 47.889 38.3434 48.1634C38.3425 48.4766 38.2814 48.7867 38.1634 49.0768C38.0621 49.2243 37.9452 49.3604 37.8147 49.4827C37.7873 49.5171 37.7646 49.555 37.7472 49.5954V50.0803C37.7472 50.0803 37.8147 50.0803 37.8597 50.0803C37.9047 50.0803 38.0734 49.8097 38.1072 49.7533C38.1671 49.6289 38.2512 49.5177 38.3546 49.4263L38.8608 49.0204C38.8806 49.075 38.8806 49.1349 38.8608 49.1895C38.7833 49.2903 38.7119 49.3957 38.6471 49.5052C38.6213 49.6073 38.5754 49.7031 38.5121 49.7871C38.3914 49.8926 38.2854 50.014 38.1971 50.1479C38.0847 50.3283 38.0959 50.4411 38.0397 50.4862C37.9626 50.5463 37.8673 50.5781 37.7697 50.5764C37.6731 50.5549 37.5839 50.5082 37.511 50.4411C37.504 50.4358 37.4984 50.429 37.4944 50.4212C37.4905 50.4134 37.4885 50.4047 37.4885 50.396C37.4885 50.3872 37.4905 50.3786 37.4944 50.3708C37.4984 50.3629 37.504 50.3561 37.511 50.3509V49.5954C37.4764 49.5447 37.4533 49.487 37.4435 49.4263C37.4435 49.3135 37.4435 49.3586 37.376 49.3023C37.3085 49.2459 37.286 49.0091 37.376 48.964C37.4366 48.9204 37.4931 48.8714 37.5448 48.8174C37.5448 48.8174 37.691 48.7498 37.7247 48.8174C37.7772 48.8672 37.8442 48.8988 37.9159 48.9076C37.9947 48.9076 38.0959 48.9076 38.0959 48.8061C38.0959 48.7047 38.0959 48.4453 38.0959 48.4002C38.0992 48.2983 38.076 48.1972 38.0284 48.1071C37.9609 47.9943 37.781 47.8026 37.6572 47.8252C37.5335 47.8477 37.1286 47.8928 37.1286 47.8928C37.1286 47.8928 37.0723 47.9605 37.0386 47.983C36.9907 48.0107 36.9364 48.0253 36.8811 48.0253C36.8258 48.0253 36.7715 48.0107 36.7236 47.983C36.7236 47.983 36.7236 47.735 36.7236 47.656C36.7236 47.5771 36.8474 47.4869 36.9373 47.4869H37.6572C37.7595 47.4577 37.866 47.4463 37.9722 47.4531Z" fill="#003D79"/>
<path fill-rule="evenodd" clip-rule="evenodd" d="M40.1765 49.7082C40.133 49.6918 40.085 49.6918 40.0415 49.7082C39.974 49.7082 39.9515 49.8097 39.8953 49.9338C39.839 50.0578 39.8953 50.0803 39.974 50.0691C40.0527 50.0578 40.064 50.0691 40.1315 49.9338C40.1753 49.8674 40.1915 49.7864 40.1765 49.7082ZM39.794 47.3516C40.0238 47.1447 40.286 46.977 40.5702 46.8555C40.8237 46.7716 41.0917 46.7409 41.3575 46.7653C41.4554 46.7726 41.5494 46.807 41.6288 46.8648C41.7083 46.9225 41.7701 47.0013 41.8075 47.0923C41.8863 47.3186 41.8863 47.5651 41.8075 47.7914C41.6854 48.0217 41.4973 48.2102 41.2675 48.3326C41.1367 48.3837 41.001 48.4215 40.8626 48.4454C40.8279 48.4865 40.786 48.5209 40.7389 48.5469C40.6878 48.5609 40.6413 48.5881 40.6039 48.6258V49.3812C40.6566 49.4085 40.7027 49.447 40.7389 49.494C40.7908 49.5722 40.8253 49.6606 40.8401 49.7533C40.8401 49.8435 40.8401 50.3397 40.8401 50.3397C40.8598 50.3909 40.8905 50.4371 40.9301 50.475C40.9711 50.5138 41.0164 50.5479 41.0651 50.5765C41.1587 50.5697 41.2527 50.5697 41.3463 50.5765C41.4208 50.5881 41.4967 50.5881 41.5713 50.5765C41.6612 50.5765 41.785 50.5765 41.8412 50.5765C41.855 50.6005 41.8623 50.6277 41.8623 50.6554C41.8623 50.6831 41.855 50.7103 41.8412 50.7343C41.8116 50.7774 41.7732 50.8137 41.7286 50.8409C41.6841 50.8681 41.6343 50.8856 41.5825 50.8922C41.4813 50.8922 41.3125 50.9598 41.2338 50.9598C41.1783 50.9728 41.1206 50.9728 41.0651 50.9598C41.0651 50.9598 40.8851 50.9598 40.8176 50.8922C40.7302 50.8141 40.651 50.7272 40.5814 50.6328C40.5382 50.4866 40.5192 50.3342 40.5252 50.1818C40.5252 50.1818 40.5027 50.148 40.4014 50.148C40.3179 50.1714 40.2409 50.2138 40.1765 50.272C40.109 50.272 39.9065 50.3848 39.8053 50.272C39.7579 50.206 39.727 50.1296 39.7153 50.0491C39.7036 49.9687 39.7113 49.8866 39.7378 49.8097C39.7975 49.6379 39.8979 49.4832 40.0302 49.3587C40.1272 49.2596 40.2416 49.1793 40.3677 49.1219V48.5581C40.2881 48.5124 40.2221 48.4462 40.1765 48.3664C40.0977 48.2424 39.9965 48.0395 40.1765 47.9605C40.3564 47.8816 40.3789 47.8365 40.4802 47.9605C40.5814 48.0846 40.6601 48.1184 40.6939 48.1184C40.8068 48.1274 40.92 48.1039 41.0201 48.0507C41.1618 47.9826 41.291 47.8911 41.4025 47.7801C41.4546 47.716 41.4934 47.642 41.5166 47.5626C41.5398 47.4833 41.5469 47.4 41.5375 47.3178C41.5375 47.1036 41.4363 47.0698 41.3013 47.0359C41.1153 47.0021 40.9248 47.0021 40.7389 47.0359C40.5891 47.0686 40.4424 47.1139 40.3002 47.1712C40.1315 47.2389 40.019 47.3517 39.9628 47.3629C39.9065 47.3742 39.8053 47.3516 39.794 47.3516Z" fill="#003D79"/>
<path fill-rule="evenodd" clip-rule="evenodd" d="M43.6529 47.7913H45.0027C45.0923 47.7792 45.1831 47.7792 45.2727 47.7913C45.3319 47.8014 45.388 47.8249 45.4368 47.8601C45.4855 47.8953 45.5256 47.9412 45.5539 47.9942C45.5688 48.0484 45.5704 48.1054 45.5587 48.1604C45.547 48.2153 45.5222 48.2667 45.4864 48.31C45.4189 48.3776 44.9577 48.6482 44.9577 48.6482C44.9577 48.6482 44.4966 49.009 44.4291 49.0767C44.3616 49.1444 44.4291 49.212 44.3503 49.2684L44.2266 49.3699L44.0804 49.6405C44.0804 49.6405 44.0241 49.7532 44.0804 49.7871C44.1101 49.8019 44.1428 49.8097 44.176 49.8097C44.2092 49.8097 44.2419 49.8019 44.2716 49.7871C44.4492 49.7175 44.6341 49.6684 44.8228 49.6405C45.0698 49.6196 45.3181 49.6196 45.5651 49.6405C45.5651 49.6405 45.7001 49.6969 45.6551 49.8096C45.6101 49.9224 45.5539 50.0238 45.4752 50.0577C45.3964 50.0915 45.3177 50.0577 45.2502 50.0013C45.1579 49.9784 45.0613 49.9784 44.969 50.0013C44.969 50.0013 44.834 50.0013 44.6653 50.0577C44.4943 50.1188 44.3287 50.1942 44.1704 50.2832C44.0247 50.3609 43.8629 50.4034 43.6979 50.4072C43.5067 50.4072 43.428 50.317 43.4167 50.1028C43.4123 50.0152 43.4283 49.9279 43.4635 49.8476C43.4986 49.7674 43.5519 49.6965 43.6192 49.6405C43.7317 49.539 44.0466 49.2909 44.0804 49.2458C44.1141 49.2007 44.0804 49.0993 44.1591 49.0203L44.4066 48.7948L44.7328 48.4678C44.7328 48.4678 44.8115 48.31 44.7328 48.2761C44.654 48.2423 44.5416 48.2761 44.5416 48.2761C44.4565 48.2963 44.3679 48.2963 44.2828 48.2761C44.2337 48.2631 44.1878 48.2401 44.1479 48.2085C44.0168 48.2177 43.8853 48.2177 43.7542 48.2085C43.704 48.1927 43.6583 48.165 43.6211 48.1277C43.5839 48.0904 43.5562 48.0446 43.5405 47.9942C43.4842 47.8928 43.5405 47.8026 43.6529 47.7913Z" fill="#003D79"/>
<path fill-rule="evenodd" clip-rule="evenodd" d="M48.4445 50.3622C48.2195 50.475 48.2308 50.3622 48.1183 50.5314C48.0058 50.7005 48.1183 50.7005 48.1183 50.7681C48.1183 50.8358 48.4108 50.7681 48.5345 50.7681C48.6582 50.7681 48.6807 50.6779 48.8382 50.599C48.9957 50.5201 49.1532 50.3735 49.1756 50.2269C49.1981 50.0803 49.1307 50.148 48.9619 50.148C48.7786 50.1896 48.6037 50.262 48.4445 50.3622ZM47.9608 47.5095C47.9822 47.4546 48.0086 47.4018 48.0396 47.3517C48.0811 47.2761 48.1343 47.2077 48.1971 47.1487C48.2411 47.1218 48.2917 47.1076 48.3433 47.1076C48.3949 47.1076 48.4454 47.1218 48.4895 47.1487C48.5837 47.2057 48.6643 47.2826 48.7257 47.3742C48.7932 47.4419 48.8494 47.4982 48.9282 47.4982C49.0178 47.5106 49.1086 47.5106 49.1981 47.4982C49.3079 47.4098 49.4096 47.3117 49.5018 47.2051C49.6325 47.1175 49.777 47.0527 49.9293 47.0134C50.018 46.9923 50.1105 46.9923 50.1992 47.0134C50.278 47.0134 50.413 47.1374 50.4917 47.2163C50.566 47.3503 50.5861 47.5077 50.5479 47.6561C50.5373 47.7692 50.5002 47.8782 50.4396 47.9742C50.379 48.0702 50.2966 48.1505 50.1992 48.2086C49.9955 48.3287 49.8068 48.4725 49.6368 48.6371C49.5243 48.8175 49.6931 49.0092 49.7831 49.1445C49.873 49.2798 49.8505 49.4376 49.918 49.494C50.1555 49.5414 50.3961 49.5715 50.6379 49.5842C50.7301 49.6484 50.81 49.7286 50.8741 49.821C50.8741 49.8774 50.7392 49.9112 50.7392 49.9112H50.233C50.0868 49.9112 49.8843 49.9112 49.8393 50.0352C49.7465 50.2487 49.6213 50.4465 49.4681 50.6216C49.2789 50.7809 49.0665 50.9101 48.8382 51.0049C48.5727 51.0736 48.3017 51.1189 48.0283 51.1402C47.9383 51.1402 47.8259 51.05 47.7359 51.05C47.6864 51.0489 47.6378 51.0373 47.5932 51.0159C47.5486 50.9945 47.5091 50.9639 47.4772 50.926C47.4097 50.8471 47.5334 50.802 47.5896 50.7456C47.8234 50.4852 48.0878 50.2543 48.377 50.0578C48.619 49.9202 48.8808 49.8213 49.1532 49.7646C49.2661 49.7269 49.3697 49.6654 49.4569 49.5842C49.4835 49.5379 49.4975 49.4854 49.4975 49.432C49.4975 49.3785 49.4835 49.326 49.4569 49.2798C49.3571 49.1283 49.2847 48.9603 49.2431 48.7836C49.2431 48.7047 49.3444 48.5581 49.4119 48.513C49.4794 48.4679 49.6481 48.4116 49.6931 48.3665C49.7381 48.3213 49.6931 48.2311 49.7718 48.1748C49.9564 48.0705 50.0965 47.902 50.1655 47.7012C50.1769 47.6408 50.1737 47.5785 50.156 47.5197C50.1384 47.4608 50.1069 47.407 50.0643 47.3629C49.9743 47.284 49.9405 47.284 49.873 47.3629C49.8055 47.4419 49.1307 47.8139 49.0294 47.8703C48.9262 47.8976 48.8177 47.8976 48.7145 47.8703C48.647 47.8703 48.5795 47.7463 48.5232 47.6561C48.467 47.5659 48.377 47.5772 48.287 47.5433C48.1971 47.5095 48.2195 47.5433 48.1633 47.5433C48.1071 47.5433 47.9833 47.5433 47.9833 47.5433L47.8596 47.6335C47.7921 47.6335 47.7921 47.7012 47.7584 47.8252C47.7574 47.8757 47.7434 47.925 47.7178 47.9685C47.6921 48.012 47.6558 48.0481 47.6121 48.0733C47.5109 48.1635 47.4209 48.2199 47.3197 48.1748C47.2083 48.0769 47.1297 47.947 47.0947 47.8027C47.0995 47.6499 47.1549 47.5031 47.2522 47.3855C47.3422 47.2502 47.4322 47.2276 47.5334 47.2614C47.6346 47.2953 47.6796 47.487 47.6796 47.487L47.9608 47.5095Z" fill="#003D79"/>
<path fill-rule="evenodd" clip-rule="evenodd" d="M52.877 47.4867C53.0002 47.5028 53.1249 47.5028 53.2481 47.4867C53.3381 47.4867 53.4506 47.3402 53.5406 47.3176C53.5756 47.3098 53.6121 47.312 53.6459 47.3239C53.6797 47.3359 53.7095 47.3571 53.7318 47.3853C53.7864 47.4492 53.8215 47.5274 53.8331 47.6108C53.8383 47.6228 53.847 47.6331 53.8579 47.6403C53.8689 47.6475 53.8818 47.6514 53.8949 47.6514C53.9081 47.6514 53.9209 47.6475 53.9319 47.6403C53.9429 47.6331 53.9515 47.6228 53.9568 47.6108C54.013 47.6108 53.9568 47.4416 54.0243 47.374C54.0846 47.2398 54.1079 47.0918 54.0918 46.9455C54.0918 46.8328 54.013 46.844 53.9005 46.8328C53.7694 46.8284 53.6401 46.8638 53.5294 46.9342C53.4501 46.9883 53.3674 47.0373 53.2819 47.0808C53.2256 47.0808 53.1357 47.0808 53.1019 47.1485C53.0652 47.2143 53.0154 47.2718 52.9557 47.3176L52.877 47.4867Z" fill="#003D79"/>
<path fill-rule="evenodd" clip-rule="evenodd" d="M53.7313 48.0505C53.7183 48.1818 53.7183 48.314 53.7313 48.4452C53.802 48.5439 53.8943 48.6249 54.0013 48.682C54.0742 48.7356 54.1592 48.7705 54.2488 48.7834C54.3163 48.7834 54.4175 48.9188 54.4737 48.9751C54.4975 49.0036 54.5106 49.0395 54.5106 49.0766C54.5106 49.1137 54.4975 49.1497 54.4737 49.1781C54.4737 49.2457 54.3388 49.1781 54.2825 49.3134C54.2263 49.4487 54.215 49.4487 54.08 49.4713C53.9451 49.4938 53.4501 49.4713 53.4501 49.4713C53.4077 49.4991 53.3697 49.5333 53.3377 49.5727C53.3377 49.6291 53.2814 49.6291 53.2702 49.6742V50.4184C53.2702 50.4184 53.3377 50.4184 53.3714 50.5312C53.4052 50.6439 53.4726 50.6777 53.4389 50.8018C53.4051 50.9258 53.4389 51.016 53.3377 51.0386C53.2364 51.0611 53.1577 50.9709 53.0677 50.8581C53.0132 50.8077 52.9775 50.74 52.9665 50.6665V49.3472C52.9665 49.3472 52.8652 49.3472 52.8652 49.2006C52.8652 49.0541 52.8652 48.5805 52.8652 48.5805C52.8652 48.5805 52.9215 48.4339 53.034 48.4452C53.1464 48.4565 53.1914 48.4452 53.2027 48.5579C53.2129 48.6554 53.2129 48.7536 53.2027 48.8511C53.2027 48.8511 53.2027 49.0202 53.2589 49.0879C53.3241 49.1511 53.4061 49.1942 53.4951 49.2119C53.5447 49.2274 53.5974 49.2304 53.6484 49.2206C53.6995 49.2107 53.7473 49.1884 53.7876 49.1555C53.8267 49.132 53.8554 49.0944 53.8679 49.0505C53.8804 49.0065 53.8758 48.9594 53.8551 48.9188C53.8551 48.8173 53.8551 48.7609 53.7426 48.7158C53.6301 48.6707 53.5176 48.6256 53.4951 48.5467C53.4576 48.4526 53.4576 48.3476 53.4951 48.2535C53.5612 48.1723 53.6412 48.1035 53.7313 48.0505Z" fill="#003D79"/>
<path fill-rule="evenodd" clip-rule="evenodd" d="M56.0147 47.5206C56.1685 47.4968 56.3255 47.5331 56.4534 47.622C56.5204 47.7688 56.5659 47.9245 56.5884 48.0843C56.5884 48.0843 56.7008 48.2422 56.8358 48.2309C56.9708 48.2196 56.9933 48.1633 57.0045 48.0843C57.0158 48.0054 57.0045 47.4416 57.0045 47.4416C56.9637 47.3858 56.9297 47.3252 56.9033 47.2612C56.8939 47.2161 56.8736 47.1741 56.8441 47.1387C56.8147 47.1033 56.7771 47.0757 56.7346 47.0583C56.5552 47.0373 56.374 47.0373 56.1947 47.0583C56.142 47.067 56.0879 47.0611 56.0384 47.0412C55.9888 47.0213 55.9456 46.9882 55.9135 46.9455C55.9135 46.9455 55.7672 46.8215 55.5873 46.9455C55.4073 47.0695 55.3511 47.1372 55.3286 47.1823C55.3061 47.2274 55.2723 47.4416 55.1823 47.498C55.0911 47.5325 54.997 47.5589 54.9011 47.5769C54.7512 47.6465 54.6172 47.7463 54.5074 47.8701C54.4512 47.9378 54.2937 48.0505 54.305 48.1182C54.3162 48.1858 54.4062 48.2422 54.4849 48.2196C54.5637 48.1971 54.4849 48.0731 54.7886 48.0731C55.0923 48.0731 55.0361 48.2084 55.0699 48.276C55.1036 48.3437 55.0699 48.7609 55.0699 48.8172C55.1176 48.8868 55.1839 48.9415 55.2611 48.9751C55.3286 48.9751 55.4073 48.9751 55.4523 49.0428C55.4973 49.1104 55.621 49.2344 55.5985 49.3021C55.576 49.3697 55.4748 49.4487 55.4185 49.5276C55.2489 49.7534 55.0608 49.9646 54.8561 50.159C54.6408 50.3513 54.3933 50.504 54.125 50.6101C54.4114 50.6147 54.6954 50.557 54.9574 50.4409C55.1086 50.3524 55.2517 50.2505 55.3848 50.1365C55.4389 50.1145 55.4994 50.1145 55.5535 50.1365C55.6435 50.1365 55.666 50.2154 55.711 50.3169C55.7781 50.4722 55.8735 50.6137 55.9922 50.7341C56.0822 50.7905 56.1384 50.9145 56.2172 50.937C56.3518 50.9516 56.4875 50.9516 56.6221 50.937C56.7868 50.9462 56.9496 50.8985 57.0833 50.8017C57.2183 50.689 57.342 50.565 57.342 50.486C57.3575 50.4306 57.3688 50.3741 57.3757 50.3169C57.3656 50.1404 57.3656 49.9634 57.3757 49.7869C57.3757 49.7869 57.3757 49.7869 57.3082 49.7869C57.2408 49.7869 57.3082 50.2154 57.2295 50.2718C57.1508 50.3282 57.1733 50.4973 57.072 50.5537C56.8664 50.6138 56.6478 50.6138 56.4421 50.5537C56.3547 50.522 56.2763 50.4696 56.2136 50.4008C56.1509 50.3321 56.1058 50.2491 56.0822 50.159C56.0147 49.9168 55.9806 49.6664 55.981 49.4149C55.981 49.3246 56.1947 49.1668 56.2172 49.0428C56.2397 48.9187 56.2509 49.0202 56.2509 48.8736C56.2509 48.727 56.1947 48.5692 56.0597 48.5805C55.9511 48.5892 55.8447 48.6159 55.7447 48.6594C55.6773 48.6594 55.4748 48.7609 55.4073 48.6594C55.3398 48.5579 55.2948 48.5692 55.2948 48.5015C55.2837 48.3062 55.2837 48.1105 55.2948 47.9152C55.2948 47.8475 55.2948 47.7122 55.4748 47.6446C55.6466 47.5735 55.8291 47.5316 56.0147 47.5206Z" fill="#003D79"/>
<path d="M28.4227 48.4458C28.4847 48.6314 28.5188 48.8252 28.5239 49.0209C28.5239 49.0886 28.3214 49.1111 28.2652 49.0209C28.2089 48.9307 28.2652 48.8743 28.2652 48.8067C28.2652 48.739 28.1302 48.5924 28.0515 48.4458C27.9727 48.2993 28.0515 48.2542 28.1864 48.2654C28.2358 48.2782 28.2822 48.3007 28.3227 48.3317C28.3633 48.3627 28.3973 48.4015 28.4227 48.4458ZM26.3755 47.4085C26.3232 47.4146 26.2703 47.4146 26.218 47.4085C26.1714 47.3998 26.1275 47.3798 26.0903 47.3504C26.0531 47.3209 26.0236 47.2828 26.0043 47.2394C26.0043 47.1379 26.0043 46.8673 26.0043 46.9011C26.1072 46.9738 26.1794 47.0823 26.2068 47.2055C26.2405 47.3296 26.3755 47.4085 26.3755 47.4085ZM27.9615 50.9603C27.9615 50.9603 27.9615 50.9603 27.9615 51.0279C27.9675 51.0896 27.9909 51.1482 28.029 51.1971C28.0402 51.276 28.1302 51.276 28.1302 51.276C28.135 51.2084 28.135 51.1406 28.1302 51.073C28.1302 51.0167 27.9615 50.9603 27.9615 50.9603ZM26.1393 50.3965C26.1393 50.3965 25.993 50.498 26.0268 50.5544C26.0605 50.6108 26.1843 50.5544 26.218 50.5544C26.2518 50.5544 26.1955 50.3852 26.1393 50.3965ZM26.7017 49.5396C26.6133 49.5808 26.5362 49.6426 26.4767 49.72C26.4767 49.7764 26.4767 49.8215 26.4767 49.8778C26.4767 49.9342 26.5555 49.9793 26.6342 49.9793C26.7129 49.9793 26.7354 49.9793 26.7804 49.9793C26.8619 49.9512 26.938 49.9092 27.0054 49.8553C27.042 49.8354 27.0728 49.8062 27.0945 49.7705C27.1162 49.7349 27.1282 49.6941 27.1291 49.6523C27.1359 49.6301 27.138 49.6067 27.1354 49.5837C27.1327 49.5606 27.1254 49.5383 27.1138 49.5182C27.1021 49.4981 27.0865 49.4806 27.0679 49.4669C27.0492 49.4531 27.028 49.4433 27.0054 49.4381C26.8817 49.4155 26.8029 49.5057 26.7017 49.5396ZM27.8265 47.3634C27.8265 47.3634 27.9502 47.3634 27.939 47.5213C27.9277 47.6791 27.7928 47.7017 27.7253 47.7468C27.6273 47.7986 27.5366 47.863 27.4553 47.9384C27.3991 47.9384 27.4553 48.1865 27.4553 48.2429C27.4553 48.2993 27.4553 48.3895 27.3766 48.4684C27.3255 48.4906 27.2805 48.5246 27.2453 48.5678C27.2101 48.6109 27.1857 48.6619 27.1741 48.7165C27.1338 48.7314 27.1011 48.7618 27.0832 48.8009C27.0653 48.84 27.0636 48.8847 27.0785 48.9251C27.0934 48.9654 27.1237 48.9982 27.1627 49.0162C27.2018 49.0342 27.2463 49.0359 27.2866 49.0209C27.2866 49.0209 27.7365 49.0209 27.804 49.0209C27.8715 49.0209 27.9502 49.0209 27.939 49.1337C27.9277 49.2464 27.7928 49.2013 27.714 49.2126C27.6163 49.2201 27.5226 49.2553 27.4441 49.3141C27.4158 49.4971 27.4158 49.6835 27.4441 49.8666C27.4441 49.9568 27.5341 49.9906 27.6128 49.9906C27.6915 49.9906 27.8265 49.8778 27.8715 49.8327C27.8825 49.8215 27.8966 49.8138 27.9121 49.8106C27.9275 49.8075 27.9435 49.809 27.958 49.8151C27.9726 49.8212 27.9849 49.8315 27.9936 49.8447C28.0022 49.8579 28.0067 49.8733 28.0065 49.8891C28.0065 49.8891 27.9502 50.0582 27.9277 50.1485C27.911 50.2248 27.8805 50.2974 27.8378 50.3627C27.8378 50.3627 27.8378 50.4642 27.8378 50.5656C27.906 50.6681 28.0105 50.7406 28.1302 50.7686C28.2905 50.9208 28.4103 51.1107 28.4789 51.3211C28.4907 51.3885 28.4877 51.4577 28.4702 51.5239C28.4528 51.5901 28.4212 51.6517 28.3777 51.7045C28.3777 51.7721 28.0852 51.7045 28.0515 51.7045C27.9388 51.5702 27.8372 51.4269 27.7478 51.276C27.717 51.2226 27.6748 51.1767 27.6243 51.1416C27.5737 51.1065 27.516 51.0831 27.4553 51.073C27.3203 51.073 27.1291 51.152 27.0391 51.1294H26.9041C26.7467 51.1294 26.8367 51.0505 26.9041 51.0279C27.0527 50.946 27.189 50.8435 27.3091 50.7235C27.3927 50.6044 27.4397 50.4632 27.4441 50.3176C27.4276 50.259 27.405 50.2023 27.3766 50.1485C27.3766 50.1485 27.3766 50.0921 27.1066 50.0808C26.8367 50.0695 26.7917 50.0808 26.7579 50.0808C26.7242 50.0808 26.6229 50.2725 26.533 50.295C26.443 50.3176 26.4767 50.4078 26.443 50.4754C26.3992 50.5839 26.3992 50.7052 26.443 50.8137C26.4601 50.8508 26.469 50.8912 26.469 50.9321C26.469 50.973 26.4601 51.0134 26.443 51.0505H26.1393L25.7118 50.5995C25.6901 50.5557 25.6787 50.5075 25.6787 50.4585C25.6787 50.4096 25.6901 50.3614 25.7118 50.3176C25.7118 50.2387 25.9705 50.2612 26.083 50.2387C26.134 50.2132 26.1774 50.1748 26.209 50.1274C26.2405 50.0799 26.2592 50.025 26.263 49.968C26.263 49.8891 26.263 49.7764 26.1843 49.7538C26.0945 49.7451 26.0041 49.7451 25.9143 49.7538C25.8018 49.7538 25.8356 49.6523 25.8581 49.6185C25.9682 49.4883 26.0927 49.371 26.2293 49.269C26.353 49.19 26.6229 49.0547 26.6679 49.0322C26.6808 48.9918 26.6808 48.9485 26.6679 48.9081C26.6134 48.8333 26.5395 48.7748 26.4542 48.739C26.3642 48.739 26.3417 48.6375 26.4542 48.6037C26.5725 48.5089 26.6852 48.4072 26.7917 48.2993C26.8479 48.2316 26.7917 48.1978 26.7129 48.1301C26.6342 48.0625 26.2855 48.1301 26.1618 48.1301C26.1124 48.1469 26.0592 48.1483 26.009 48.1342C25.9588 48.1202 25.9141 48.0912 25.8806 48.0512C25.8018 47.9723 25.9593 47.961 26.0493 47.9384C26.1393 47.9159 26.1843 47.8482 26.3192 47.8257C26.4542 47.8031 26.5892 47.8257 26.7354 47.758C26.8307 47.7425 26.9247 47.7199 27.0166 47.6904C27.075 47.6348 27.1391 47.5857 27.2079 47.5438C27.3117 47.4815 27.4096 47.4098 27.5003 47.3296C27.5003 47.3296 27.5003 47.2619 27.5003 47.1943C27.5003 47.1266 27.6578 46.98 27.6578 46.8673C27.6578 46.7545 27.5453 46.6981 27.5116 46.6643C27.4778 46.6305 27.5116 46.4726 27.5116 46.4614C27.6162 46.4499 27.7218 46.4499 27.8265 46.4614C27.894 46.4614 27.939 46.529 27.984 46.6869C28.029 46.8447 27.9165 46.9913 27.849 47.1041C27.8202 47.1875 27.805 47.2751 27.804 47.3634H27.8265Z" fill="#003D79"/>
<path fill-rule="evenodd" clip-rule="evenodd" d="M33.0245 44.5102L32.9121 44.8823H32.6309L32.7771 44.3749L33.2383 42.9317L33.3282 42.5934H33.6207L34.1494 44.3411C34.1726 44.4334 34.2027 44.5239 34.2394 44.6117C34.268 44.6918 34.3187 44.7622 34.3856 44.8147H33.9919L33.8794 44.5102L33.7557 44.0141H33.1483L33.0245 44.5102ZM33.2158 43.766H33.6769L33.452 42.988L33.2158 43.766Z" fill="#003D79"/>
<path fill-rule="evenodd" clip-rule="evenodd" d="M34.8796 44.8481H34.5871V43.044C34.5871 42.8524 34.5871 42.7283 34.4521 42.6268H34.8796L34.9808 42.7847L35.8582 44.2956V42.593H36.1281V44.9609C36.0282 44.93 35.9362 44.8777 35.8585 44.8076C35.7808 44.7375 35.7193 44.6513 35.6782 44.555L34.8796 43.1455V44.8481Z" fill="#003D79"/>
<path fill-rule="evenodd" clip-rule="evenodd" d="M36.8585 44.8481H36.5886V43.044C36.5886 42.8524 36.5886 42.7283 36.4648 42.6268H36.8923L36.9823 42.7847L37.8709 44.2956V42.593H38.1408V44.9609C38.0355 44.9269 37.9398 44.8682 37.8616 44.7898C37.7833 44.7114 37.7248 44.6154 37.6909 44.5099L36.8585 43.1004V44.8481Z" fill="#003D79"/>
<path fill-rule="evenodd" clip-rule="evenodd" d="M29.0641 42.6158C28.9146 42.5986 28.7637 42.5986 28.6142 42.6158C28.4609 42.6066 28.3073 42.6289 28.163 42.6814C28.0186 42.734 27.8865 42.8155 27.7748 42.9212C27.6631 43.0268 27.5742 43.1543 27.5135 43.2957C27.4528 43.4371 27.4216 43.5894 27.4219 43.7434C27.4219 43.8915 27.451 44.0381 27.5075 44.1749C27.564 44.3117 27.6469 44.436 27.7513 44.5407C27.9623 44.7521 28.2484 44.8709 28.5467 44.8709C28.7858 44.8722 29.0241 44.8419 29.2553 44.7807V43.6532H28.8392C28.9741 43.7208 28.9741 43.8787 28.9741 44.0366V44.5214C28.8476 44.5658 28.7145 44.5886 28.5804 44.5891C28.4627 44.5819 28.3475 44.5514 28.2416 44.4991C28.1357 44.4469 28.0413 44.374 27.9638 44.2848C27.8863 44.1956 27.8273 44.0918 27.7903 43.9795C27.7532 43.8672 27.7389 43.7486 27.7481 43.6306C27.7371 43.5185 27.7496 43.4054 27.7847 43.2983C27.8197 43.1913 27.8766 43.0928 27.9518 43.009C28.0269 42.9252 28.1186 42.858 28.221 42.8117C28.3234 42.7654 28.4343 42.7409 28.5467 42.7399C28.6406 42.7358 28.7343 42.7518 28.8215 42.7868C28.9088 42.8218 28.9876 42.875 29.0529 42.9428L29.0641 42.6158Z" fill="#003D79"/>
<path fill-rule="evenodd" clip-rule="evenodd" d="M30.1777 44.5775H30.3801C30.445 44.5712 30.5071 44.5479 30.5601 44.5099L30.4926 44.8481H29.5928V42.593H30.4364V42.8636H29.874V43.4951H30.2902V43.7657H29.874V44.5662L30.1777 44.5775Z" fill="#003D79"/>
<path fill-rule="evenodd" clip-rule="evenodd" d="M25.9591 44.8485H25.6892V43.0444C25.6892 42.8527 25.6892 42.7287 25.5654 42.6272H25.9929L26.0941 42.7851L27.0052 44.2734V42.5934H27.2302V44.9612C27.1257 44.9257 27.0308 44.8665 26.9528 44.7883C26.8748 44.7101 26.8157 44.6149 26.7802 44.5102L25.9591 43.1459V44.8485Z" fill="#003D79"/>
<path fill-rule="evenodd" clip-rule="evenodd" d="M31.3915 44.5779H31.5603C31.6364 44.5759 31.7105 44.5525 31.774 44.5102L31.6615 44.8823H30.8066V42.6272H31.639V42.8978H31.0878V43.4954H31.504V43.766H31.0878V44.5666L31.3915 44.5779Z" fill="#003D79"/>
<path d="M40.5022 42.5712C40.6107 42.5772 40.7156 42.6122 40.8059 42.6726C40.9095 42.7339 40.9951 42.8213 41.0544 42.9262C41.1136 43.0311 41.1443 43.1497 41.1434 43.2703C41.146 43.4102 41.1021 43.5471 41.0186 43.6594C40.9351 43.7717 40.8168 43.8529 40.6822 43.8904C40.5082 43.9301 40.3275 43.9301 40.1535 43.8904V44.815H39.8498V43.0109C39.8498 42.8192 39.8498 42.6839 39.7148 42.5937H40.5022V42.5712ZM40.8172 43.2477C40.823 43.1895 40.8155 43.1307 40.7951 43.0759C40.7748 43.021 40.7422 42.9716 40.6999 42.9313C40.6575 42.891 40.6065 42.861 40.5508 42.8435C40.4951 42.8261 40.4362 42.8216 40.3785 42.8305H40.1535V43.6423H40.3222C40.4338 43.6486 40.5434 43.6108 40.6275 43.537C40.7116 43.4632 40.7635 43.3594 40.7722 43.2477H40.8172Z" fill="#003D79"/>
<path d="M55.4531 42.5825H55.1719V44.8264H55.4531V42.5825Z" fill="#003D79"/>
<path fill-rule="evenodd" clip-rule="evenodd" d="M45.4299 44.8713H45.1262V43.9016L44.6762 43.0109L44.575 42.8079C44.5427 42.7553 44.5007 42.7094 44.4513 42.6726H44.3838H44.7775L45.3174 43.6423L45.8348 42.6726H46.1273L45.4411 43.9467L45.4299 44.8713Z" fill="#003D79"/>
<path fill-rule="evenodd" clip-rule="evenodd" d="M46.7469 44.8717V42.8872H46.522C46.463 42.8867 46.4046 42.8985 46.3504 42.9218C46.2962 42.9451 46.2474 42.9794 46.207 43.0225L46.297 42.6166H47.6468V42.8872H47.0282V44.8717H46.7469Z" fill="#003D79"/>
<path fill-rule="evenodd" clip-rule="evenodd" d="M50.7615 44.4205L50.6265 44.7926C50.4852 44.856 50.3314 44.8869 50.1766 44.8828C50.0263 44.8928 49.8757 44.8704 49.7347 44.8173C49.5937 44.7642 49.4657 44.6814 49.3592 44.5747C49.2527 44.4679 49.1702 44.3396 49.1171 44.1983C49.0641 44.0569 49.0419 43.9059 49.0518 43.7552C49.0409 43.611 49.0599 43.4662 49.1076 43.3297C49.1553 43.1932 49.2307 43.0681 49.3289 42.9622C49.4271 42.8563 49.5462 42.7719 49.6785 42.7143C49.8108 42.6568 49.9536 42.6273 50.0979 42.6277C50.2768 42.631 50.4545 42.6575 50.6265 42.7066V43.0449C50.4693 42.9306 50.2808 42.8676 50.0866 42.8645C49.985 42.8685 49.8853 42.8935 49.7937 42.9377C49.7021 42.982 49.6205 43.0447 49.5541 43.1219C49.4877 43.199 49.4377 43.2891 49.4074 43.3864C49.3772 43.4837 49.3671 43.5862 49.378 43.6876C49.3656 43.7996 49.3756 43.913 49.4075 44.0211C49.4395 44.1292 49.4926 44.2298 49.5639 44.317C49.6351 44.4041 49.7231 44.4762 49.8225 44.5288C49.9219 44.5815 50.0309 44.6136 50.1429 44.6235C50.3629 44.6093 50.5757 44.5395 50.7615 44.4205Z" fill="#003D79"/>
<path fill-rule="evenodd" clip-rule="evenodd" d="M51.4259 43.7667V44.8266H51.1222V43.0902C51.1279 43.0038 51.1279 42.9172 51.1222 42.8309C51.1222 42.7519 51.1222 42.673 51.0098 42.6504H51.4372V43.4961H52.3933V42.6053H52.6858V44.8605H52.3933V43.7667H51.4259Z" fill="#003D79"/>
<path fill-rule="evenodd" clip-rule="evenodd" d="M57.5213 44.3868L57.375 44.7476C57.2403 44.8196 57.089 44.8546 56.9364 44.8491C56.7861 44.8591 56.6354 44.8367 56.4944 44.7836C56.3534 44.7305 56.2254 44.6477 56.1189 44.541C56.0124 44.4342 55.9299 44.3059 55.8769 44.1646C55.8239 44.0232 55.8016 43.8722 55.8115 43.7216C55.799 43.5779 55.8165 43.4333 55.8629 43.2968C55.9093 43.1604 55.9835 43.0351 56.0809 42.929C56.1783 42.8229 56.2966 42.7383 56.4284 42.6806C56.5602 42.623 56.7026 42.5935 56.8464 42.594C57.029 42.5973 57.2104 42.6238 57.3863 42.6729V43.0337C57.2291 42.9194 57.0406 42.8564 56.8464 42.8533C56.7448 42.8574 56.6451 42.8823 56.5534 42.9266C56.4618 42.9709 56.3803 43.0335 56.3138 43.1107C56.2474 43.1879 56.1975 43.2779 56.1672 43.3753C56.1369 43.4726 56.1269 43.5751 56.1377 43.6765C56.1253 43.7885 56.1354 43.9019 56.1673 44.01C56.1992 44.118 56.2524 44.2186 56.3236 44.3058C56.3949 44.393 56.4828 44.465 56.5822 44.5177C56.6817 44.5703 56.7906 44.6025 56.9026 44.6123C57.1251 44.5934 57.3386 44.5156 57.5213 44.3868Z" fill="#003D79"/>
<path d="M44.2936 44.5898H44.3611C44.4624 44.5898 44.6198 44.5898 44.6761 44.4996L44.5748 44.8491H43.5625V42.594H43.8775V44.601H44.2599L44.2936 44.5898Z" fill="#003D79"/>
<path fill-rule="evenodd" clip-rule="evenodd" d="M42.3485 42.5042C42.0501 42.5042 41.764 42.6229 41.5531 42.8344C41.3421 43.0459 41.2236 43.3327 41.2236 43.6317C41.2229 43.9176 41.3306 44.193 41.5248 44.4023C41.719 44.6117 41.9853 44.7392 42.2697 44.7593C42.5542 44.7392 42.8205 44.6117 43.0147 44.4023C43.2089 44.193 43.3165 43.9176 43.3158 43.6317C43.3185 43.3581 43.2218 43.0929 43.0439 42.8854C42.8659 42.6779 42.6187 42.5424 42.3485 42.5042ZM42.3485 42.7409C42.7984 42.7409 43.0571 43.2145 43.0571 43.6994C43.0571 44.1842 42.7871 44.5676 42.3485 44.5676C41.9098 44.5676 41.6286 44.0827 41.6286 43.6204C41.6286 43.1581 41.8873 42.7409 42.3372 42.7409H42.3485Z" fill="#003D79"/>
<path fill-rule="evenodd" clip-rule="evenodd" d="M48.5127 44.6009H48.6814C48.7571 44.5945 48.8285 44.5628 48.8839 44.5107L48.7827 44.8828H47.8828V42.6277H48.7264V42.8983H48.1753V43.5185H48.5915V43.7891H48.1753V44.6009H48.5127Z" fill="#003D79"/>
<path fill-rule="evenodd" clip-rule="evenodd" d="M53.1687 44.8264V43.0335C53.1687 42.8419 53.1687 42.7066 53.0449 42.6163H53.4724L53.5623 42.7742L54.451 44.2851V42.5825H54.7209V44.9391C54.6211 44.9116 54.5287 44.8618 54.4508 44.7935C54.3729 44.7251 54.3114 44.64 54.271 44.5445L53.4386 43.1237V44.8264H53.1687Z" fill="#003D79"/>
<path fill-rule="evenodd" clip-rule="evenodd" d="M67.8147 78.6188H68.4333C70.0756 78.6188 71.4703 77.9084 71.4703 76.0818C71.4703 74.4919 70.638 73.5786 67.9834 73.5786H66.7461V82.2495H67.8709L67.8147 78.6188ZM67.8147 74.5483H68.1071C69.232 74.5483 70.458 74.7062 70.458 76.0592C70.458 77.4123 69.2657 77.6491 68.2084 77.6491H67.8597L67.8147 74.5483Z" fill="#003D79"/>
<path fill-rule="evenodd" clip-rule="evenodd" d="M86.0257 73.3978C84.8324 73.3978 83.688 73.873 82.8442 74.7189C82.0004 75.5647 81.5264 76.7119 81.5264 77.9081C81.5264 79.1132 82.004 80.269 82.8541 81.1212C83.7042 81.9734 84.8572 82.4521 86.0594 82.4521C87.2616 82.4521 88.4146 81.9734 89.2647 81.1212C90.1149 80.269 90.5924 79.1132 90.5924 77.9081C90.5925 77.31 90.4739 76.718 90.2436 76.1663C90.0133 75.6146 89.6758 75.1144 89.2509 74.6947C88.8259 74.275 88.3219 73.9442 87.7682 73.7216C87.2145 73.4989 86.6222 73.3889 86.0257 73.3978ZM86.0257 81.426C85.5683 81.4231 85.116 81.3297 84.6946 81.1511C84.2733 80.9726 83.8913 80.7125 83.5705 80.3856C83.2497 80.0588 82.9964 79.6717 82.8251 79.2466C82.6539 78.8214 82.568 78.3666 82.5725 77.9081C82.5725 76.99 82.9363 76.1095 83.5839 75.4603C84.2315 74.8112 85.1098 74.4465 86.0257 74.4465C86.9415 74.4465 87.8198 74.8112 88.4674 75.4603C89.115 76.1095 89.4789 76.99 89.4789 77.9081C89.4833 78.3666 89.3974 78.8214 89.2262 79.2466C89.0549 79.6717 88.8016 80.0588 88.4808 80.3856C88.16 80.7125 87.778 80.9726 87.3567 81.1511C86.9354 81.3297 86.4831 81.4231 86.0257 81.426Z" fill="#003D79"/>
<path fill-rule="evenodd" clip-rule="evenodd" d="M102.369 73.5786H101.289V82.2495H105.001V81.2573H102.369V73.5786Z" fill="#003D79"/>
<path fill-rule="evenodd" clip-rule="evenodd" d="M116.868 78.4835V82.2495H117.937V78.4835L120.76 73.5786H119.523L117.397 77.277L115.282 73.5786H114.045L116.868 78.4835Z" fill="#003D79"/>
<path fill-rule="evenodd" clip-rule="evenodd" d="M133.526 74.5709H135.573V73.5786H130.388V74.5709H132.446V82.2495H133.526V74.5709Z" fill="#003D79"/>
<path fill-rule="evenodd" clip-rule="evenodd" d="M146.113 82.2495H150.759V81.2573H147.182V77.9873H150.658V76.9951H147.182V74.5709H150.759V73.5786H146.113V82.2495Z" fill="#003D79"/>
<path fill-rule="evenodd" clip-rule="evenodd" d="M168.07 73.9838C167.411 73.5888 166.656 73.3857 165.888 73.3975C165.284 73.3838 164.683 73.4923 164.122 73.7163C163.561 73.9404 163.05 74.2756 162.621 74.7017C162.191 75.1279 161.852 75.6364 161.623 76.1969C161.394 76.7574 161.28 77.3585 161.287 77.9641C161.287 79.1603 161.762 80.3075 162.605 81.1533C163.449 81.9991 164.593 82.4743 165.787 82.4743C166.576 82.4678 167.351 82.2581 168.036 81.8654V80.5913C167.528 81.034 166.904 81.3208 166.238 81.4175C165.571 81.5143 164.891 81.4169 164.279 81.137C163.666 80.8571 163.147 80.4065 162.783 79.8389C162.419 79.2714 162.225 78.6108 162.225 77.9359C162.225 77.2611 162.419 76.6005 162.783 76.0329C163.147 75.4653 163.666 75.0147 164.279 74.7348C164.891 74.4549 165.571 74.3575 166.238 74.4543C166.904 74.5511 167.528 74.8379 168.036 75.2805L168.07 73.9838Z" fill="#003D79"/>
<path fill-rule="evenodd" clip-rule="evenodd" d="M180.026 77.074V73.5786H178.946V82.2495H180.026V78.0888H184.143V82.2495H185.223V73.5786H184.143V77.074H180.026Z" fill="#003D79"/>
<path fill-rule="evenodd" clip-rule="evenodd" d="M196.371 82.2491H197.451V75.7882L203.941 82.6099V73.5782H202.861V79.9827L196.371 73.161V82.2491Z" fill="#003D79"/>
<path d="M216.213 73.5786H215.133V82.2495H216.213V73.5786Z" fill="#003D79"/>
<path fill-rule="evenodd" clip-rule="evenodd" d="M233.815 73.9838C233.155 73.5915 232.4 73.3887 231.633 73.3975C231.029 73.3838 230.428 73.4923 229.867 73.7163C229.306 73.9404 228.795 74.2756 228.366 74.7017C227.936 75.1279 227.597 75.6364 227.368 76.1969C227.139 76.7574 227.025 77.3585 227.033 77.9641C227.033 79.1603 227.507 80.3075 228.35 81.1533C229.194 81.9991 230.339 82.4743 231.532 82.4743C232.321 82.4643 233.095 82.2549 233.782 81.8654V80.5913C233.145 81.1662 232.321 81.4872 231.464 81.4934C230.564 81.4423 229.716 81.0477 229.097 80.3904C228.477 79.733 228.132 78.8629 228.132 77.9585C228.132 77.054 228.477 76.1839 229.097 75.5266C229.716 74.8693 230.564 74.4746 231.464 74.4236C232.291 74.4364 233.087 74.7397 233.714 75.2805L233.815 73.9838Z" fill="#003D79"/>
<path d="M233.839 69.3949H66.7461V70.1504H233.839V69.3949Z" fill="#003D79"/>
<path fill-rule="evenodd" clip-rule="evenodd" d="M111.908 42.6382C110.06 42.235 108.175 42.0309 106.284 42.0293C97.7127 42.0293 91.6611 46.7876 91.6611 54.4324C91.6611 61.5698 97.0153 66.5423 106.081 66.5423C108.874 66.4547 111.653 66.1075 114.383 65.505C114.383 65.505 114.383 64.3774 114.383 63.8813V55.7065C114.383 55.1766 114.383 54.0716 114.383 54.0716H109.175V54.1843C110.772 54.8158 110.806 56.5635 110.806 58.1984V63.3063C109.203 63.7592 107.544 63.9869 105.879 63.9828C104.552 64.0038 103.235 63.7591 102.004 63.2629C100.773 62.7668 99.6527 62.0292 98.7098 61.0934C97.7668 60.1576 97.0198 59.0425 96.5125 57.8135C96.0052 56.5845 95.7478 55.2663 95.7555 53.9363C95.7555 48.2083 99.9736 44.5888 105.508 44.5888C107.667 44.5888 110.356 45.085 111.807 46.7199H111.919L111.908 42.6382Z" fill="#003D79"/>
<path fill-rule="evenodd" clip-rule="evenodd" d="M121.357 54.5679H127.24V52.0196H121.357V45.1641H129.231V42.5933H117.746V65.9336H130.119L131.469 62.3931H131.356C130.119 63.453 126.497 63.3741 125.89 63.3741H121.391L121.357 54.5679Z" fill="#003D79"/>
<path fill-rule="evenodd" clip-rule="evenodd" d="M70.2104 47.6107L82.3698 63.0582C83.0569 64.093 83.9431 64.98 84.9764 65.6674C86.0097 66.3547 87.1694 66.8285 88.3876 67.061V42.6044H85.0131V60.6452L71.9989 44.2393L70.7503 42.6044H64.9688V42.7059C66.8135 43.8334 66.8135 45.1977 66.8135 47.2161V65.9335H70.1879L70.2104 47.6107Z" fill="#003D79"/>
<path fill-rule="evenodd" clip-rule="evenodd" d="M138.364 54.5679H144.246V52.0196H138.364V45.1641H146.237V42.5933H134.753V65.9336H147.126L148.487 62.4382H148.375C147.137 63.4981 143.515 63.4192 142.908 63.4192H138.409L138.364 54.5679Z" fill="#003D79"/>
<path fill-rule="evenodd" clip-rule="evenodd" d="M173.975 57.1949L177.35 65.9786H182.67V65.8658C180.657 64.8397 180.015 62.844 179.194 60.8257L171.815 42.6044H168.002L158.835 65.9335H161.748L165.044 57.1498L173.975 57.1949ZM172.951 54.5677H165.966L169.476 45.6375L172.951 54.5677Z" fill="#003D79"/>
<path fill-rule="evenodd" clip-rule="evenodd" d="M188.98 47.6107L201.128 63.0582C201.812 64.0869 202.691 64.9701 203.716 65.6571C204.741 66.344 205.891 66.8211 207.101 67.061V42.6044H203.726V60.6452L190.746 44.2393L189.464 42.6044H183.693V42.7059C185.538 43.8334 185.538 45.1977 185.538 47.2161V65.9335H188.913L188.98 47.6107Z" fill="#003D79"/>
<path fill-rule="evenodd" clip-rule="evenodd" d="M215.661 47.6107L227.82 63.0582C228.508 64.093 229.394 64.98 230.427 65.6674C231.46 66.3547 232.62 66.8285 233.838 67.061V42.6044H230.464V60.6452L217.472 44.2393L216.201 42.6044H210.431V42.7059C212.275 43.8334 212.275 45.1977 212.275 47.2161V65.9335H215.65L215.661 47.6107Z" fill="#003D79"/>
</svg>
